<?xml version="1.0" standalone="no"?>
<!DOCTYPE svg PUBLIC "-//W3C//DTD SVG 1.1//EN" "http://www.w3.org/Graphics/SVG/1.1/DTD/svg11.dtd" >
<svg xmlns="http://www.w3.org/2000/svg">
<metadata>Generated by IcoMoon</metadata>
<defs>
<font id="icomoon" horiz-adv-x="1024">
<font-face units-per-em="1024" ascent="960" descent="-64" />
<missing-glyph horiz-adv-x="1024" />
<glyph unicode="&#x20;" horiz-adv-x="512" d="" />
<glyph unicode="&#xe900;" glyph-name="home" horiz-adv-x="1149" d="M1136.536 555.44l-544.519 398.692c-4.873 3.605-11 5.77-17.634 5.77s-12.761-2.165-17.715-5.827l0.081 0.057-544.334-398.692c-7.444-5.494-12.219-14.234-12.219-24.088 0-16.487 13.366-29.853 29.853-29.853 6.633 0 12.76 2.163 17.715 5.822l-0.082-0.058 526.793 385.783 526.916-385.783c4.874-3.602 11.001-5.765 17.634-5.765 16.487 0 29.853 13.366 29.853 29.853 0 9.855-4.775 18.594-12.137 24.031l-0.082 0.058zM992.253 500.593c-16.476 0-29.832-13.356-29.832-29.832v0-475.095h-238.783v259.413c0 82.431-66.824 149.255-149.255 149.255s-149.255-66.824-149.255-149.255v0-259.413h-238.783v475.095c0 16.476-13.356 29.832-29.832 29.832s-29.832-13.356-29.832-29.832v0-504.866c0-16.476 13.356-29.832 29.832-29.832h298.448c15.657 0.019 28.486 12.097 29.702 27.443l0.007 0.104c0.019 0.351 0.031 0.761 0.031 1.174s-0.011 0.823-0.033 1.23l0.002-0.057v289.183c0 49.462 40.097 89.559 89.559 89.559s89.559-40.097 89.559-89.559v-289.245c-0.019-0.341-0.030-0.741-0.030-1.143s0.011-0.801 0.032-1.198l-0.002 0.055c1.223-15.451 14.052-27.528 29.707-27.547h298.45c16.476 0 29.832 13.356 29.832 29.832v0 504.928c-0.034 16.342-13.202 29.596-29.507 29.771h-0.017z" />
<glyph unicode="&#xe901;" glyph-name="left-arrow" horiz-adv-x="2225" d="M1749.662-48.547c-9.358-9.437-22.327-15.279-36.662-15.279-28.512 0-51.625 23.113-51.625 51.625 0 14.177 5.715 27.020 14.967 36.35l372.13 372.13h-1996.28c-0.141-0.001-0.307-0.002-0.474-0.002-28.454 0-51.542 22.978-51.719 51.39v0.017c0.089 28.79 23.404 52.104 52.185 52.193h1996.131l-372.134 371.504c-9.19 9.47-14.855 22.404-14.855 36.662s5.665 27.192 14.868 36.675l-0.013-0.013c9.333 9.491 22.31 15.372 36.662 15.372s27.329-5.881 36.655-15.364l460.287-460.444c9.226-9.336 14.924-22.176 14.924-36.346s-5.699-27.010-14.929-36.351l0.005 0.005z" />
<glyph unicode="&#xe902;" glyph-name="arrow" horiz-adv-x="1797" d="M809.29-27.045l-772.542 772.335c-22.772 22.772-36.857 54.232-36.857 88.981 0 69.498 56.339 125.838 125.838 125.838 34.749 0 66.209-14.085 88.981-36.857l683.561-683.561 683.355 683.561c22.772 22.772 54.232 36.857 88.981 36.857 69.498 0 125.838-56.339 125.838-125.838 0-34.749-14.085-66.209-36.857-88.981v0l-772.542-772.335c-22.76-22.798-54.223-36.902-88.981-36.902s-66.221 14.104-88.979 36.9l-0.002 0.002z" />
<glyph unicode="&#xe903;" glyph-name="book" horiz-adv-x="1427" d="M1399.562 874.769h-94.060v32.123c0.014 0.328 0.022 0.713 0.022 1.1 0 12.515-8.317 23.087-19.725 26.491l-0.196 0.050c-59.288 16.176-127.363 25.47-197.608 25.47-0.652 0-1.303-0.001-1.955-0.002h0.101c-6.428 0.287-13.966 0.451-21.543 0.451-136.057 0-259.78-52.811-351.787-139.052l0.281 0.261c-91.023 86.117-214.204 139.064-349.752 139.064-8.099 0-16.153-0.189-24.159-0.563l1.133 0.042c-0.551 0.001-1.202 0.002-1.854 0.002-70.245 0-138.319-9.294-203.060-26.719l5.453 1.249c-11.604-3.454-19.921-14.026-19.921-26.541 0-0.387 0.008-0.772 0.024-1.155l-0.002 0.055v-31.784h-93.313c0 0-0.001 0-0.001 0-15.266 0-27.641-12.375-27.641-27.641 0-0.096 0-0.191 0.001-0.286v0.015-883.623c0-0.025 0-0.055 0-0.085 0-15.228 12.345-27.573 27.573-27.573 5.021 0 9.729 1.342 13.784 3.687l-0.133-0.071c119.888 56.679 260.443 89.769 408.728 89.769 91.376 0 179.817-12.565 263.69-36.062l-6.865 1.642h6.791c1.020-0.133 2.199-0.209 3.396-0.209s2.376 0.076 3.533 0.223l-0.137-0.014c77.412 22.499 166.336 35.441 258.282 35.441 147.892 0 287.965-33.482 413.050-93.279l-5.78 2.489c3.973-2.34 8.752-3.723 13.855-3.723 15.214 0 27.556 12.291 27.64 27.485v883.631c0 0 0 0 0 0.001 0 15.266-12.375 27.641-27.641 27.641-0.072 0-0.143 0-0.215-0.001h0.011zM55.35 7.717v811.702h66.148v-693.805c-0.004-0.174-0.006-0.379-0.006-0.585 0-15.266 12.375-27.641 27.641-27.641 1.464 0 2.902 0.114 4.305 0.333l-0.156-0.020c51.672 8.235 111.537 13.158 172.47 13.58l0.438 0.002c3.674 0.068 8.008 0.106 12.35 0.106 80.067 0 157.071-13.112 228.983-37.306l-5.062 1.478c-36.935 4.754-79.661 7.467-123.020 7.467-138.48 0-270.496-27.676-390.819-77.798l6.728 2.485zM325.985 166.838c-53.189-0.135-105.418-3.66-156.645-10.37l6.148 0.658v727.897c49.255 11.471 105.852 18.119 163.977 18.269h0.102c6.53 0.337 14.177 0.53 21.869 0.53 126.737 0 241.283-52.196 323.314-136.265l0.089-0.092 1.087-688.915c-93.757 55.993-206.793 89.099-327.562 89.099-11.389 0-22.709-0.294-33.954-0.876l1.574 0.065zM740.936 767.737c82.744 84.139 197.802 136.276 325.038 136.276 7.117 0 14.195-0.163 21.233-0.486l-0.998 0.036c58.241-0.178 114.835-6.825 169.225-19.258l-5.146 0.99v-728.169c-44.628 6.083-96.454 9.702-149.070 9.982l-0.339 0.001c-9.274 0.472-20.137 0.74-31.063 0.74-121.201 0-234.678-33.072-331.898-90.684l3.019 1.656zM1371.853 7.717c-113.921 47.928-246.34 75.776-385.264 75.776-43.329 0-86.025-2.709-127.928-7.966l4.995 0.511c66.952 22.729 144.070 35.848 224.252 35.848 4.728 0 9.445-0.046 14.151-0.136l-0.705 0.011c61.706-0.366 121.954-5.291 180.799-14.455l-6.805 0.873c1.246-0.199 2.682-0.312 4.144-0.312 15.266 0 27.641 12.375 27.641 27.641 0 0.11-0.001 0.22-0.002 0.329v-0.017 693.601h66.148z" />
<glyph unicode="&#xe904;" glyph-name="chart" d="M885.123 422.103h-399.020v399.020c0 0.039 0 0.084 0 0.13 0 15.972-12.948 28.919-28.919 28.919-0.046 0-0.092 0-0.137 0h0.007c-252.424 0-457.054-204.63-457.054-457.054s204.63-457.054 457.054-457.054c252.424 0 457.054 204.63 457.054 457.054v0c-0.11 15.963-13.021 28.875-28.974 28.984h-0.010zM457.054-5.902c-220.080 0.387-398.34 178.886-398.34 399.020 0 209.933 162.123 382.001 367.998 397.832l1.358 0.084v-397.915c0-0.039 0-0.084 0-0.13 0-15.972 12.948-28.919 28.919-28.919 0.046 0 0.092 0 0.137 0h397.908c-15.794-207.433-187.898-369.785-397.962-369.971h-0.018zM1023.805 504.441c-0.813 251.728-205.029 455.486-456.852 455.559h-0.007c-0.039 0-0.084 0-0.13 0-15.972 0-28.919-12.948-28.919-28.919 0-0.046 0-0.092 0-0.137v0.007-428.004c0-0.039 0-0.084 0-0.13 0-15.972 12.948-28.919 28.919-28.919 0.046 0 0.092 0 0.137 0h428.062c0.039 0 0.084 0 0.13 0 15.972 0 28.919 12.948 28.919 28.919 0 0.046 0 0.092 0 0.137v-0.007zM595.736 531.736v368.931c197.449-14.953 353.978-171.483 368.849-367.587l0.082-1.344h-368.931z" />
<glyph unicode="&#xe905;" glyph-name="menu" horiz-adv-x="2048" d="M64.039 832h1920c0.67-0.025 1.457-0.039 2.247-0.039 35.368 0 64.039 28.671 64.039 64.039s-28.671 64.039-64.039 64.039c-0.79 0-1.577-0.014-2.36-0.043l0.113 0.003h-1920c-0.67 0.025-1.457 0.039-2.247 0.039-35.368 0-64.039-28.671-64.039-64.039s28.671-64.039 64.039-64.039c0.79 0 1.577 0.014 2.36 0.043l-0.113-0.003zM1984.039 511.961h-1920c-0.67 0.025-1.457 0.039-2.247 0.039-35.368 0-64.039-28.671-64.039-64.039s28.671-64.039 64.039-64.039c0.79 0 1.577 0.014 2.36 0.043l-0.113-0.003h1920c0.67-0.025 1.457-0.039 2.247-0.039 35.368 0 64.039 28.671 64.039 64.039s-28.671 64.039-64.039 64.039c-0.79 0-1.577-0.014-2.36-0.043l0.113 0.003zM1984.039 64h-1280c-0.67 0.025-1.457 0.039-2.247 0.039-35.368 0-64.039-28.671-64.039-64.039s28.671-64.039 64.039-64.039c0.79 0 1.577 0.014 2.36 0.043l-0.113-0.003h1280.079c0.67-0.025 1.457-0.039 2.247-0.039 35.368 0 64.039 28.671 64.039 64.039s-28.671 64.039-64.039 64.039c-0.79 0-1.577-0.014-2.36-0.043l0.113 0.003z" />
<glyph unicode="&#xe906;" glyph-name="user" horiz-adv-x="854" d="M420.734 466.728c1.046-0.017 2.28-0.026 3.517-0.026 67.091 0 127.715 27.685 171.073 72.253l0.053 0.055c44.583 43.405 72.241 104.003 72.241 171.061 0 1.169-0.008 2.337-0.025 3.502l0.002-0.176c0.015 0.989 0.023 2.156 0.023 3.325 0 67.058-27.657 127.656-72.188 171.010l-0.053 0.051c-44.628 44.633-106.283 72.24-174.387 72.24s-129.759-27.607-174.386-72.24v0c-44.621-43.411-72.304-104.034-72.304-171.123 0-1.148 0.008-2.294 0.024-3.437l-0.002 0.174c-0.014-0.971-0.022-2.116-0.022-3.264 0-67.089 27.683-127.712 72.25-171.070l0.054-0.053c43.42-44.619 104.050-72.3 171.146-72.3 1.049 0 2.097 0.007 3.143 0.020l-0.159-0.002zM288.806 845.132c33.766 33.783 80.423 54.68 131.96 54.68s98.194-20.896 131.96-54.679l0.001-0.001c33.766-32.492 54.74-78.069 54.74-128.545 0-1.19-0.012-2.377-0.035-3.561l0.003 0.177c0.016-0.895 0.025-1.95 0.025-3.008 0-50.504-20.998-96.103-54.739-128.544l-0.058-0.056c-33.766-33.783-80.423-54.68-131.96-54.68s-98.194 20.896-131.96 54.679l-0.001 0.001c-33.766 32.482-54.741 78.051-54.741 128.518 0 1.199 0.012 2.396 0.035 3.589l-0.003-0.179c-0.018 0.951-0.029 2.073-0.029 3.197 0 50.505 20.999 96.106 54.742 128.547l0.059 0.056zM852.243 172.599c-1.838 24.567-4.773 46.736-8.865 68.497l0.591-3.783c-4.521 25.496-10.038 47.374-16.914 68.642l1.008-3.607c-7.594 23.297-16.652 43.363-27.57 62.217l0.825-1.544c-11.356 20.103-24.753 37.382-40.287 52.475l-0.055 0.053c-16.185 15.289-35.356 27.621-56.519 36.009l-1.203 0.421c-21.37 8.49-46.131 13.414-72.042 13.414-0.671 0-1.34-0.003-2.009-0.010l0.102 0.001c-15.425-1.696-29.165-7.835-40.202-17.091l0.116 0.095c-11.993-7.825-26.039-16.868-41.753-26.937-15.514-9.445-33.412-17.534-52.307-23.346l-1.695-0.449c-19.725-6.773-42.452-10.683-66.092-10.683s-46.368 3.91-67.57 11.119l1.478-0.436c-20.683 6.251-38.669 14.364-55.322 24.457l1.063-0.598c-15.521 9.941-29.631 19.241-41.817 26.937-10.919 9.165-24.66 15.304-39.749 16.966l-0.336 0.030c-0.581 0.006-1.267 0.010-1.954 0.010-25.895 0-50.64-4.923-73.35-13.885l1.355 0.471c-22.368-8.803-41.539-21.136-57.807-36.509l0.085 0.079c-15.588-15.146-28.985-32.425-39.75-51.394l-0.592-1.134c-10.088-17.308-19.145-37.373-26.094-58.399l-0.651-2.274c-5.863-17.653-11.379-39.531-15.437-61.917l-0.469-3.117c-3.511-17.998-6.447-40.167-8.15-62.68l-0.124-2.034c-1.347-19.241-2.052-39.893-2.052-60.481-0.108-2.266-0.17-4.922-0.17-7.592 0-47.37 19.372-90.216 50.626-121.047l0.019-0.019c32.208-29.523 75.314-47.615 122.646-47.615 2.633 0 5.253 0.056 7.859 0.167l-0.372-0.013h492.695c2.234-0.098 4.853-0.154 7.486-0.154 47.332 0 90.438 18.092 122.781 47.737l-0.135-0.122c31.273 30.84 50.646 73.678 50.646 121.040 0 2.679-0.062 5.344-0.185 7.992l0.014-0.375c0.257 20.716-0.449 40.919-1.796 60.416zM762.452 26.945c-21.544-19.317-50.164-31.127-81.543-31.127-2.541 0-5.063 0.077-7.565 0.23l0.344-0.017h-493.080c-2.159-0.136-4.681-0.213-7.222-0.213-31.379 0-59.999 11.81-81.658 31.228l0.115-0.102c-19.951 20.067-32.283 47.728-32.283 78.268 0 2.429 0.078 4.84 0.232 7.231l-0.017-0.326c0 19.241 0.641 38.161 1.924 56.312 1.667 22.131 4.329 42.1 8.039 61.698l-0.535-3.398c3.975 22.481 8.825 41.773 14.87 60.527l-0.888-3.189c6.182 18.942 13.545 35.253 22.416 50.582l-0.673-1.261c8.344 14.87 18.186 27.655 29.602 38.838l0.029 0.028c10.795 10.094 23.578 18.22 37.678 23.712l0.804 0.275c14.001 5.523 30.209 8.841 47.158 9.106l0.11 0.001c2.116-1.090 5.836-3.271 11.929-7.183 12.314-8.017 26.552-17.189 42.266-27.258 19.484-12.052 41.946-22.359 65.686-29.77l2.106-0.567c25.233-8.614 54.302-13.587 84.532-13.587s59.299 4.973 86.433 14.145l-1.902-0.558c25.871 7.976 48.354 18.283 69.146 31.075l-1.29-0.738c16.098 10.262 29.888 19.241 42.266 27.258 6.093 3.976 9.813 6.093 11.929 7.183 17.060-0.268 33.267-3.586 48.208-9.431l-0.94 0.324c14.902-5.772 27.685-13.898 38.55-24.050l-0.068 0.063c11.451-11.208 21.294-23.993 29.192-38.019l0.439-0.847c8.205-14.071 15.568-30.382 21.214-47.475l0.528-1.846c5.161-15.571 10.011-34.862 13.572-54.601l0.41-2.736c3.163-16.178 5.825-36.146 7.388-56.422l0.116-1.878c1.283-18.086 1.924-37.071 1.924-56.312 0.16-2.229 0.25-4.831 0.25-7.453 0-30.27-12.114-57.71-31.759-77.737l0.017 0.018z" />
<glyph unicode="&#xe907;" glyph-name="shopping-cart" horiz-adv-x="948" d="M767.461 365.364c0-49.661 40.258-89.919 89.919-89.919s89.919 40.258 89.919 89.919c0 49.661-40.258 89.919-89.919 89.919v0c-49.661 0-89.919-40.258-89.919-89.919v0zM897.304 365.364c0-21.95-17.794-39.744-39.744-39.744s-39.744 17.794-39.744 39.744c0 21.95 17.794 39.744 39.744 39.744v0c21.93-0.051 39.693-17.815 39.744-39.739v-0.005zM767.461 680.981c0-49.661 40.258-89.919 89.919-89.919s89.919 40.258 89.919 89.919c0 49.661-40.258 89.919-89.919 89.919v0c-49.661 0-89.919-40.258-89.919-89.919v0zM897.304 680.981c0-21.95-17.794-39.744-39.744-39.744s-39.744 17.794-39.744 39.744c0 21.95 17.794 39.744 39.744 39.744v0c21.93-0.051 39.693-17.815 39.744-39.739v-0.005zM293.316 703.46v-360.306c0.817-13.243 11.756-23.673 25.132-23.673s24.316 10.431 25.129 23.602l0.004 0.071v360.306c0.029 0.45 0.045 0.975 0.045 1.504 0 13.905-11.272 25.177-25.177 25.177s-25.177-11.272-25.177-25.177c0-0.529 0.016-1.054 0.048-1.575l-0.004 0.071zM423.879 683.768v-321.102c-0.029-0.45-0.045-0.975-0.045-1.504 0-13.905 11.272-25.177 25.177-25.177s25.177 11.272 25.177 25.177c0 0.529-0.016 1.054-0.048 1.575l0.004-0.071v321.102c-0.817 13.243-11.756 23.673-25.132 23.673s-24.316-10.431-25.129-23.602l-0.004-0.071zM181.277 948.67c-11.34-9.256-18.523-23.234-18.523-38.889 0-0.016 0-0.032 0-0.048v-783.194l-76.791-15.826c-16.251-3.449-29.388-14.363-35.84-28.903l-0.127-0.321-47.927-110.331c-1.037-2.652-1.638-5.723-1.638-8.934 0-13.905 11.272-25.177 25.177-25.177 9.856 0 18.39 5.663 22.523 13.914l0.066 0.145 47.927 110.331 590.499 121.661c23.243 4.815 40.464 25.12 40.464 49.447 0 0.066 0 0.132 0 0.198v-0.010 602.459c-0.817 13.243-11.756 23.673-25.132 23.673s-24.316-10.431-25.129-23.602l-0.004-0.071v-602.459l-71.935-14.837v621.791c-0.048 24.158-17.070 44.326-39.772 49.216l-0.332 0.060-341.693 70.317c-2.943 0.614-6.324 0.966-9.788 0.966-12.216 0-23.411-4.374-32.104-11.641l0.079 0.064zM554.442 839.328v-632.132l-341.693-70.317v772.856z" />
<glyph unicode="&#xe908;" horiz-adv-x="1078" d="M0 960h1075.2v-307.2h-1075.2v307.2z" />
<glyph unicode="&#xe909;" horiz-adv-x="1078" d="M928.922 827.75l111.462 111.462h37.018v-260.096h-37.171l-111.309 148.634z" />
<glyph unicode="&#xe90a;" horiz-adv-x="1078" d="M928.922 827.699v-148.48h111.462z" />
<glyph unicode="&#xe90b;" horiz-adv-x="1078" d="M148.48 827.75l-111.309 111.462h-37.171v-260.096h37.171l111.309 148.634z" />
<glyph unicode="&#xe90c;" horiz-adv-x="1078" d="M148.634 827.699v-148.48h-111.462z" />
<glyph unicode="&#xe90d;" horiz-adv-x="1078" d="M1008.026-64h-938.496c-38.4 0-69.53 31.129-69.53 69.53v673.587h1077.504v-673.587c0-38.382-31.1-69.5-69.476-69.53h-0.003z" />
<glyph unicode="&#xe90e;" horiz-adv-x="1078" d="M358.4 550.4c0-28.277-22.923-51.2-51.2-51.2s-51.2 22.923-51.2 51.2c0 28.277 22.923 51.2 51.2 51.2s51.2-22.923 51.2-51.2z" />
<glyph unicode="&#xe90f;" horiz-adv-x="1078" d="M819.2 550.4c0-28.277-22.923-51.2-51.2-51.2s-51.2 22.923-51.2 51.2c0 28.277 22.923 51.2 51.2 51.2s51.2-22.923 51.2-51.2z" />
<glyph unicode="&#xe910;" horiz-adv-x="1078" d="M538.778 177.51c-133.312 0.175-241.336 108.198-241.51 241.493v111.479c0 10.265 8.321 18.586 18.586 18.586s18.586-8.321 18.586-18.586v-111.462c0-112.868 91.497-204.365 204.365-204.365s204.365 91.497 204.365 204.365v0 111.462c0 10.265 8.321 18.586 18.586 18.586s18.586-8.321 18.586-18.586v-111.462c-0.175-133.33-108.227-241.365-241.548-241.51h-0.014z" />
<glyph unicode="&#xe911;" horiz-adv-x="1290" d="M1024.274 270.283c0 180.413-341.272 326.699-674.687 326.699-461.7 0-462.705-652.575-22.843-652.575 7.767 0 15.35-0.822 22.843-0.822 333.369 0 674.687 146.286 674.687 326.699z" />
<glyph unicode="&#xe912;" horiz-adv-x="1290" d="M963.741 960c-131.027 0-243.962-180.047-296.044-406.329 202.296-56.376 356.349-162.093 356.349-283.252 0-103.798-113.072-196.449-272.561-256.069 187.312-159.489 537.95-74.376 537.95 248.165 0 7.767 0.822 15.35 0.822 22.843 0.183 333.369-146.103 674.641-326.516 674.641z" />
<glyph unicode="&#xe913;" horiz-adv-x="1290" d="M104.986 258.176h-1.188c-12.779 0.706-22.874 11.241-22.874 24.133 0 0.43 0.011 0.857 0.033 1.282l-0.002-0.059c2.814 82.314 43.924 154.472 105.98 199.545l0.742 0.513c3.815 2.626 8.535 4.195 13.622 4.195 13.373 0 24.213-10.841 24.213-24.213 0-7.997-3.877-15.089-9.855-19.498l-0.066-0.047c-50.934-37.148-84.209-95.871-86.292-162.456l-0.008-0.323c-0.651-12.877-11.25-23.071-24.23-23.071-0.026 0-0.053 0-0.079 0h0.004z" />
<glyph unicode="&#xe914;" horiz-adv-x="1290" d="M274.023 473.767c-0.034 0-0.075 0-0.115 0-13.347 0-24.168 10.82-24.168 24.168 0 11.064 7.434 20.391 17.58 23.259l0.17 0.041c25.687 7.314 55.189 11.519 85.673 11.519 0.686 0 1.372-0.002 2.057-0.006l-0.105 0.001c0.314 0.015 0.682 0.023 1.052 0.023 13.373 0 24.213-10.841 24.213-24.213s-10.841-24.213-24.213-24.213c-0.37 0-0.738 0.008-1.103 0.025l0.052-0.002c-0.537 0.004-1.173 0.006-1.809 0.006-25.835 0-50.84-3.555-74.553-10.201l1.94 0.464c-1.933-0.552-4.153-0.869-6.447-0.869-0.078 0-0.157 0-0.235 0.001h0.012z" />
<glyph unicode="&#xe915;" horiz-adv-x="1290" d="M1145.25 597.027c-10.912 0.001-20.139 7.22-23.163 17.143l-0.045 0.172c-12.796 43.59-30.696 81.639-53.483 116.178l0.991-1.598c-2.918 3.951-4.67 8.918-4.67 14.294 0 13.373 10.841 24.213 24.213 24.213 8.764 0 16.44-4.656 20.691-11.629l0.060-0.107c24.333-36.683 44.318-79.053 57.757-124.241l0.857-3.359c0.626-2.049 0.987-4.404 0.987-6.843 0-10.923-7.233-20.157-17.171-23.173l-0.171-0.045c-2.026-0.638-4.355-1.005-6.77-1.005-0.029 0-0.058 0-0.087 0h0.004z" />
<glyph unicode="&#xe916;" horiz-adv-x="1290" d="M1024.274 792.927c-0.003 0-0.006 0-0.009 0-6.056 0-11.592 2.232-15.828 5.918l0.029-0.025c-18.564 16.732-40.035 30.723-63.479 41.062l-1.532 0.603c-9.472 3.443-16.115 12.367-16.115 22.843 0 13.391 10.856 24.247 24.247 24.247 2.916 0 5.711-0.515 8.301-1.458l-0.169 0.054c30.917-12.983 57.485-30.057 80.556-50.926l-0.241 0.214c5.158-4.458 8.402-11.008 8.402-18.317 0-6.059-2.23-11.598-5.914-15.84l0.025 0.030c-4.418-5.158-10.937-8.406-18.216-8.406-0.021 0-0.041 0-0.062 0h0.003z" />
<glyph unicode="&#xe917;" horiz-adv-x="1160" d="M777.711-64.037h-395.598c-29.583 0-53.565 23.982-53.565 53.565v0 245.203h502.729v-245.203c0-29.583-23.982-53.565-53.565-53.565v0z" />
<glyph unicode="&#xe918;" horiz-adv-x="1160" d="M769.47 234.731v-245.203c0-29.583-23.982-53.565-53.565-53.565v0h61.806c29.583 0 53.565 23.982 53.565 53.565v0 245.203z" />
<glyph unicode="&#xe919;" horiz-adv-x="1160" d="M724.108 768.4c0-105.818-64.567-191.6-144.215-191.6s-144.215 85.782-144.215 191.6c0 105.818 64.567 191.6 144.215 191.6s144.215-85.782 144.215-191.6z" />
<glyph unicode="&#xe91a;" horiz-adv-x="1160" d="M579.893 960c-11.014-0.006-21.65-1.62-31.686-4.621l0.783 0.201c64.803-18.729 113.312-95.481 113.312-187.292s-48.696-168.563-113.312-187.292c9.254-2.8 19.889-4.414 30.9-4.42h0.003c79.637 0 144.215 85.78 144.215 191.6s-64.503 191.824-144.215 191.824z" />
<glyph unicode="&#xe91b;" horiz-adv-x="1160" d="M339.432 748.056c74.824-74.824 89.826-181.137 33.506-237.457s-162.632-41.318-237.457 33.506c-74.824 74.824-89.826 181.137-33.506 237.457s162.632 41.318 237.457-33.506z" />
<glyph unicode="&#xe91c;" horiz-adv-x="1160" d="M101.999 781.548c-7.214-7.222-13.435-15.437-18.441-24.422l-0.288-0.563c59.109 32.514 147.624 12.623 212.501-52.254s84.768-153.392 52.254-212.501c9.548 5.294 17.763 11.515 24.986 18.73l-0.001-0.001c56.188 56.188 41.204 162.644-33.525 237.486s-181.149 89.9-237.486 33.525z" />
<glyph unicode="&#xe91d;" horiz-adv-x="1160" d="M1057.677 781.486c56.319-56.319 41.318-162.632-33.506-237.457s-181.137-89.826-237.457-33.506c-56.319 56.319-41.318 162.632 33.506 237.457s181.137 89.826 237.457 33.506z" />
<glyph unicode="&#xe91e;" horiz-adv-x="1160" d="M1057.787 781.548c-7.222 7.214-15.437 13.435-24.422 18.441l-0.563 0.288c32.514-59.109 12.623-147.624-52.254-212.501s-153.579-84.768-212.501-52.254c5.293-9.548 11.515-17.763 18.73-24.986l-0.001 0.001c56.188-56.188 162.644-41.204 237.486 33.525s89.863 181.149 33.525 237.486z" />
<glyph unicode="&#xe91f;" horiz-adv-x="1160" d="M1026.884 698.128l-46.786 5.694-5.694 46.786c-0.964 7.495-7.304 13.227-14.983 13.227-8.339 0-15.1-6.76-15.1-15.1 0-0.66 0.042-1.311 0.125-1.948l-0.008 0.075 6.33-50.981-33.713-33.713-10.039 44.95c-1.552 6.753-7.51 11.713-14.628 11.713-8.279 0-14.99-6.711-14.99-14.99 0-1.162 0.132-2.293 0.382-3.379l-0.020 0.101 14.234-63.342-33.263-33.263-3.409 27.869c-0.964 7.495-7.304 13.227-14.983 13.227-8.339 0-15.1-6.76-15.1-15.1 0-0.66 0.042-1.311 0.125-1.948l-0.008 0.075 6.218-51.206-236.662-237.037v315.587l40.605 31.802c3.518 2.773 5.757 7.034 5.757 11.818 0 8.289-6.72 15.009-15.009 15.009-3.505 0-6.73-1.202-9.284-3.215l0.032 0.024-22.1-17.306v46.973l54.839 34.724c4.257 2.713 7.040 7.409 7.040 12.755 0 8.325-6.749 15.074-15.074 15.074-2.979 0-5.757-0.864-8.096-2.356l0.061 0.036-38.769-24.723v47.685l40.605 31.802c3.518 2.773 5.757 7.034 5.757 11.818 0 8.289-6.72 15.009-15.009 15.009-3.505 0-6.73-1.202-9.284-3.215l0.032 0.024-37.121-29.068-37.121 29.068c-2.523 1.989-5.747 3.191-9.252 3.191-8.289 0-15.009-6.72-15.009-15.009 0-4.784 2.238-9.045 5.725-11.794l0.032-0.024 40.605-31.802v-47.685l-38.732 24.723c-2.276 1.462-5.054 2.331-8.035 2.331-8.29 0-15.011-6.721-15.011-15.011 0-5.309 2.756-9.975 6.916-12.644l0.060-0.036 54.839-34.724v-47.010l-22.1 17.306c-2.523 1.989-5.747 3.191-9.252 3.191-8.289 0-15.009-6.72-15.009-15.009 0-4.784 2.238-9.045 5.725-11.794l0.032-0.024 40.605-31.802v-315.512l-236.924 236.737 6.218 51.206c0.074 0.562 0.117 1.213 0.117 1.873 0 8.339-6.76 15.1-15.1 15.1-7.679 0-14.020-5.732-14.975-13.152l-0.008-0.075-3.409-27.869-33.263 33.263 14.234 63.342c0.231 0.985 0.363 2.116 0.363 3.278 0 8.279-6.711 14.99-14.99 14.99-7.117 0-13.076-4.96-14.608-11.612l-0.020-0.101-9.739-44.838-33.713 33.713 6.218 51.206c0.074 0.562 0.117 1.213 0.117 1.873 0 8.339-6.76 15.1-15.1 15.1-7.679 0-14.020-5.732-14.975-13.152l-0.008-0.075-5.694-46.786-46.786-5.694c-7.495-0.964-13.227-7.304-13.227-14.983 0-8.339 6.76-15.1 15.1-15.1 0.66 0 1.311 0.042 1.948 0.125l-0.075-0.008 51.206 6.218 33.713-33.713-44.95-10.039c-6.753-1.552-11.713-7.51-11.713-14.628 0-8.279 6.711-14.99 14.99-14.99 1.162 0 2.293 0.132 3.379 0.382l-0.101-0.020 63.342 14.234 33.263-33.263-27.869-3.409c-7.894-0.488-14.111-7.010-14.111-14.983 0-8.29 6.72-15.010 15.010-15.010 0.316 0 0.63 0.010 0.942 0.029l-0.043-0.002h1.835l51.206 6.218 258.238-258.013v-15.283c0-8.275 6.708-14.983 14.983-14.983s14.983 6.708 14.983 14.983v0 15.283l258.126 258.126 51.206-6.218c0.562-0.074 1.213-0.117 1.873-0.117 8.339 0 15.1 6.76 15.1 15.1 0 7.679-5.732 14.020-13.152 14.975l-0.075 0.008-27.869 3.409 33.263 33.263 63.342-14.234c0.985-0.231 2.116-0.363 3.278-0.363 8.279 0 14.99 6.711 14.99 14.99 0 7.117-4.96 13.076-11.612 14.608l-0.101 0.020-44.95 10.039 33.713 33.713 51.206-6.218c0.562-0.074 1.213-0.117 1.873-0.117 8.339 0 15.1 6.76 15.1 15.1 0 7.679-5.732 14.020-13.152 14.975l-0.075 0.008z" />
<glyph unicode="&#xe920;" horiz-adv-x="1160" d="M862.18 187.383h-564.535c-11.378 0-20.602 9.224-20.602 20.602v0 53.565c0 11.378 9.224 20.602 20.602 20.602v0h564.535c11.378 0 20.602-9.224 20.602-20.602v-53.565c0-11.378-9.224-20.602-20.602-20.602v0z" />
<glyph unicode="&#xe921;" horiz-adv-x="1160" d="M862.18 282.116h-61.806c11.378 0 20.602-9.224 20.602-20.602v0-53.565c0-11.378-9.224-20.602-20.602-20.602v0h61.806c11.378 0 20.602 9.224 20.602 20.602v53.565c0 11.378-9.224 20.602-20.602 20.602v0z" />
<glyph unicode="&#xe922;" horiz-adv-x="373" d="M349.185 430.886c14.517 14.13 23.53 33.852 23.554 55.678v109.271c-0.347 54.071-23.306 102.711-59.885 136.994l-0.104 0.096c-12.284 11.179-22.913 23.856-31.688 37.817l-0.441 0.752h-188.504c-8.604-15.043-19.315-27.806-31.914-38.393l-0.215-0.176c-36.934-34.052-59.989-82.677-59.989-136.687 0-0.142 0-0.284 0-0.425v0.022-122.22c1.337-16.95 10.276-31.568 23.371-40.585l0.183-0.119c4.021-6.731 6.398-14.847 6.398-23.518s-2.377-16.787-6.516-23.731l0.118 0.213c-13.278-9.136-22.217-23.754-23.542-40.515l-0.012-0.189v-349.148c0.482-12.768 6.148-24.125 14.941-32.095l0.038-0.034c12.511-16.974 32.426-27.864 54.884-27.864 0.281 0 0.561 0.002 0.841 0.005h-0.042c0.275-0.004 0.599-0.007 0.924-0.007 17.009 0 32.495 6.521 44.095 17.198l-0.046-0.042h23.554c11.954-10.521 27.693-16.993 44.941-17.15h0.033c0.275-0.004 0.599-0.007 0.924-0.007 17.009 0 32.495 6.521 44.095 17.198l-0.046-0.042h23.554c11.954-10.521 27.693-16.993 44.941-17.15h0.033c0.237-0.003 0.518-0.005 0.799-0.005 22.458 0 42.373 10.89 54.752 27.677l0.132 0.187c8.831 8.004 14.497 19.361 14.977 32.045l0.003 0.084v344.915c-1.131 12.286-5.788 23.307-12.937 32.249l0.093-0.12-6.44 8.575c-6.002 6.44-9.686 15.11-9.686 24.639s3.684 18.199 9.706 24.661l-0.020-0.022z" />
<glyph unicode="&#xe923;" horiz-adv-x="373" d="M111.402 850.733v0l2.135-12.844c-0.459-36.279-14.195-69.263-36.562-94.398l0.128 0.146h222.804c-22.058 25.088-35.744 58.008-36.432 94.109l-0.002 0.143v12.844h2.135c4.736 0 8.575 3.839 8.575 8.575s-3.839 8.575-8.575 8.575h-2.135v23.554h-151.961v-19.285h-2.135c-4.6-0.324-8.251-3.975-8.573-8.546l-0.002-0.029c-0.109-8.575 4.052-12.844 10.601-12.844z" />
<glyph unicode="&#xe924;" horiz-adv-x="373" d="M248.492 960h-119.977c-11.821-0.021-21.399-9.598-21.419-21.417v-49.281h162.815v49.279c-0.021 11.821-9.598 21.399-21.417 21.419h-0.002z" />
<glyph unicode="&#xe925;" horiz-adv-x="373" d="M2.135 306.604h370.604v-222.804h-370.604v222.804z" />
<glyph unicode="&#xe926;" horiz-adv-x="373" d="M244.223 167.379c0-30.763-24.938-55.701-55.701-55.701s-55.701 24.938-55.701 55.701v0c0 29.994 55.683 109.267 55.683 109.267s55.719-77.174 55.719-109.267z" />
<glyph unicode="&#xe927;" horiz-adv-x="373" d="M201.384 126.82c-30.518 0.577-55.106 25.165-55.682 55.628l-0.001 0.055c9.331 36.023 24.827 67.525 45.466 94.936l-0.493-0.684c-0.011 0-0.024 0-0.036 0-1.159 0-2.099 0.94-2.099 2.099 0 0.013 0 0.026 0 0.038v-0.002s-55.683-79.273-55.683-109.267c0.558-30.526 25.157-55.125 55.63-55.682l0.053-0.001c0.261-0.005 0.57-0.007 0.879-0.007 18.304 0 34.442 9.271 43.975 23.374l0.119 0.187c-7.432-6.734-17.339-10.856-28.21-10.856-1.38 0-2.744 0.066-4.090 0.196l0.171-0.013z" />
<glyph unicode="&#xe928;" horiz-adv-x="762" d="M506.661 218.702l40.858-15.932c9.202-3.697 19.87-5.841 31.039-5.841s21.837 2.144 31.615 6.044l-0.576-0.203 9.835 3.84c9.202 3.695 19.87 5.839 31.039 5.839s21.837-2.144 31.615-6.042l-0.577 0.203 40.858-15.932s-20.412-231.336-23.578-231.336h-183.034z" />
<glyph unicode="&#xe929;" horiz-adv-x="762" d="M234.333 750.895v-164.104c0-82.288 94.784-159.254 94.784-159.254v-491.773h-329.118v491.773s94.784 76.966 94.784 159.254v164.104z" />
<glyph unicode="&#xe92a;" horiz-adv-x="762" d="M738.974-63.36h-246.122l-23.208 432.356h292.571zM549.708-3.37h132.408l16.842 312.343h-165.957z" />
<glyph unicode="&#xe92b;" horiz-adv-x="762" d="M59.99 358.824h59.99v-302.104h-59.99z" />
<glyph unicode="&#xe92c;" horiz-adv-x="762" d="M164.542 750.895v-815.131h164.542v491.773s-94.784 76.966-94.784 159.254v164.104z" />
<glyph unicode="&#xe92d;" horiz-adv-x="762" d="M94.751 960h139.616v-236.017h-139.616z" />
<glyph unicode="&#xe92e;" horiz-adv-x="762" d="M681.51 206.61c-9.202 3.697-19.87 5.841-31.039 5.841s-21.837-2.144-31.615-6.044l0.576 0.203-3.57-1.381v-245.887h82.995c3.099 0 23.578 231.336 23.578 231.336z" />
<glyph unicode="&#xe92f;" horiz-adv-x="762" d="M164.542 960h69.724v-236.017h-69.724z" />
<glyph unicode="&#xe930;" horiz-adv-x="762" d="M94.751 818.969h139.616v-94.953h-139.616z" />
<glyph unicode="&#xe931;" horiz-adv-x="762" d="M164.542 818.969h69.724v-94.953h-69.724z" />
<glyph unicode="&#xe932;" horiz-adv-x="762" d="M615.862 368.996v-59.99h82.995l-16.842-312.343h-66.154v-59.99h123.078l23.208 432.356z" />
<glyph unicode="&#xe933;" horiz-adv-x="1614" d="M1610.698 842.294c-7.708 24.407-30.146 41.793-56.645 41.793-7.392 0-14.468-1.353-20.994-3.825l0.408 0.136-34.708-13.043c-34.69-13.231-64.477-31.897-89.878-55.259l0.197 0.179c-141.315-134.113-312.176-238.585-501.685-302.551l-9.615-2.816c-453.309-138.078-694.326 249.101-746.981 346.974l-53.517-112.209c28.59-32.51 48.416-73.38 55.398-118.493l0.168-1.315c15.791-204.8 247.916-598.232 837.363-418.654 231.747 70.656 524.072 225.226 621.245 606.963 1.162 4.414 1.83 9.481 1.83 14.703 0 6.214-0.945 12.206-2.698 17.843l0.114-0.425z" />
<glyph unicode="&#xe934;" horiz-adv-x="1614" d="M1610.698 842.24c-5.027 16.115-16.347 28.982-31.011 35.957l-0.356 0.152c-44.876-147.795-128.061-272.743-238.057-367.405l-1.020-0.858c-138.783-117.050-318.991-188.946-515.932-191.214l-0.488-0.004q-10.456 0-20.803 0c-1.685-0.018-3.677-0.028-5.671-0.028-246.487 0-456.459 156.339-536.164 375.265l-1.262 3.967c-40.329 45.778-76.507 96.992-106.886 151.863l-2.251 4.432-53.517-112.748c28.581-32.496 48.405-73.346 55.397-118.438l0.168-1.317c15.791-204.8 247.916-598.232 837.363-418.654 95.331 28.695 178.19 65.678 255.096 111.599l-5.132-2.839c184.5 107.901 319.201 283.963 370.433 492.814l1.118 5.389c1.082 4.261 1.702 9.152 1.702 14.189 0 6.383-0.997 12.533-2.844 18.303l0.117-0.425z" />
<glyph unicode="&#xe935;" horiz-adv-x="1614" d="M1533.467 880.344l-18.378-6.899 89.519-88.98c2.425 8.461 4.743 17.031 6.952 25.708 1.151 4.391 1.811 9.433 1.811 14.629 0 6.32-0.977 12.412-2.79 18.133l0.116-0.425c-7.783 24.282-30.16 41.551-56.57 41.551-7.42 0-14.522-1.363-21.069-3.853l0.407 0.136z" />
<glyph unicode="&#xe936;" horiz-adv-x="1614" d="M1548.827 445.251l-38.481-2.425c-38.917-2.519-74.961-12.41-107.552-28.289l1.702 0.749c-175.202-89.342-381.399-143.781-599.799-148.88l-1.666-0.031c-492.921 0-615.478 458.105-638.221 571.715-3.527 17.804-11.090 33.44-21.71 46.489l0.152-0.193-54.488 66.075c-4.83 5.852-12.084 9.553-20.203 9.553-7.223 0-13.762-2.93-18.493-7.666v0l-42.361-42.307c-4.754-4.71-7.697-11.24-7.697-18.457 0-5.535 1.731-10.665 4.681-14.88l-0.056 0.084c32.337-46.403 113.179-175.32 91.998-270.282-46.349-208.465 65.428-670.397 706.398-670.397 252.227 0 589.824 65.32 802.223 415.744 5.586 9.15 8.893 20.221 8.893 32.064 0 0.096 0 0.192-0.001 0.288v-0.015c-0.112 33.818-27.552 61.189-61.386 61.189-1.384 0-2.758-0.046-4.12-0.136l0.185 0.010z" />
<glyph unicode="&#xe937;" horiz-adv-x="1614" d="M1593.937 429.352c-213.585-315.23-535.121-375.646-777.755-375.646-552.906 0-712.596 342.339-716.8 570.637-0.616-6.783-1.587-12.887-2.93-18.851l0.181 0.958c-46.349-208.465 65.428-670.451 706.398-670.451 252.227 0 589.824 65.32 802.223 415.744 5.586 9.155 8.893 20.231 8.893 32.079 0 0.091 0 0.181-0.001 0.272v-0.014c-0.042 17.946-7.812 34.070-20.157 45.224l-0.053 0.047z" />
<glyph unicode="&#xe938;" horiz-adv-x="1614" d="M155.055 865.792c-3.595 7.163-7.592 13.331-12.174 19.008l0.155-0.199-54.272 65.859c-4.839 5.837-12.092 9.527-20.207 9.527-7.217 0-13.753-2.919-18.491-7.641l-42.36-42.36c-4.754-4.71-7.697-11.24-7.697-18.457 0-5.535 1.731-10.665 4.681-14.88l-0.056 0.084c18.246-25.964 36.154-55.779 51.945-86.852l1.95-4.23z" />
<glyph unicode="&#xe939;" horiz-adv-x="1614" d="M1548.827 445.251l-20.372-1.293 62.141-115.658c4.958 7.707 9.863 15.468 14.713 23.498 5.586 9.16 8.893 20.241 8.893 32.094 0 0.086 0 0.171-0.001 0.257v-0.013c-0.080 33.842-27.532 61.246-61.386 61.246-1.403 0-2.796-0.047-4.175-0.14l0.187 0.010z" />
<glyph unicode="&#xe93a;" horiz-adv-x="660" d="M60.54 758.281h64.077v-620.598h-64.077z" />
<glyph unicode="&#xe93b;" horiz-adv-x="660" d="M92.578 758.281h32.038v-620.598h-32.038z" />
<glyph unicode="&#xe93c;" horiz-adv-x="660" d="M183.686 880.167c-6.524 45.117-44.749 79.451-91.068 79.833h-0.040c-46.329-0.418-84.517-34.739-90.978-79.334l-0.059-0.499c-0.981-6.961-1.541-15.003-1.541-23.175 0-0.002 0-0.003 0-0.005v0c0-43.838 33.824-85.681 60.54-121.851h64.077c26.716 36.17 60.435 77.977 60.54 121.851 0.001 0.157 0.001 0.343 0.001 0.529 0 7.986-0.535 15.847-1.57 23.55l0.099-0.9z" />
<glyph unicode="&#xe93d;" horiz-adv-x="660" d="M183.686 15.833c-6.52-45.094-44.708-79.415-90.994-79.833h-0.044c-46.329 0.418-84.517 34.739-90.978 79.334l-0.059 0.499c-1.001 6.944-1.586 14.982-1.611 23.151v0.028c0 43.838 33.824 85.681 60.54 121.851h64.077c26.716-36.17 60.435-77.977 60.54-121.851 0.001-0.157 0.001-0.343 0.001-0.529 0-7.986-0.535-15.847-1.57-23.55l0.099 0.9z" />
<glyph unicode="&#xe93e;" horiz-adv-x="660" d="M185.157 856.987c0-43.838-33.824-85.681-60.54-121.816h-32.038c26.786 36.135 60.435 77.907 60.54 121.816 0.001 0.157 0.001 0.343 0.001 0.529 0 7.986-0.535 15.847-1.57 23.55l0.099-0.9c-5.744 39.693-35.898 70.959-74.526 78.306l-0.58 0.092c4.8 0.959 10.337 1.531 16 1.575h0.037c46.335-0.403 84.532-34.732 90.979-79.334l0.059-0.499c0.981-6.907 1.541-14.884 1.541-22.993 0-0.115 0-0.23 0-0.345v0.018z" />
<glyph unicode="&#xe93f;" horiz-adv-x="660" d="M185.157 39.013c0.001-0.209 0.001-0.457 0.001-0.705 0-7.925-0.535-15.724-1.571-23.365l0.099 0.89c-6.506-45.101-44.703-79.43-90.996-79.833h-0.042c-0.025 0-0.054 0-0.083 0-5.639 0-11.157 0.522-16.506 1.521l0.553-0.086c39.194 7.452 69.332 38.714 75.012 77.897l0.060 0.5c0.937 6.803 1.471 14.664 1.471 22.65 0 0.186 0 0.372-0.001 0.558v-0.029c0 43.838-33.824 85.681-60.54 121.816h32.038c26.681-36.030 60.435-78.047 60.505-121.816z" />
<glyph unicode="&#xe940;" horiz-adv-x="660" d="M297.869 758.281h64.077v-620.598h-64.077z" />
<glyph unicode="&#xe941;" horiz-adv-x="660" d="M329.907 758.281h32.038v-620.598h-32.038z" />
<glyph unicode="&#xe942;" horiz-adv-x="660" d="M420.98 880.167c-6.32 45.129-44.667 79.48-91.038 79.48s-84.718-34.352-90.982-78.995l-0.056-0.485c-0.959-6.882-1.506-14.833-1.506-22.913 0-0.094 0-0.188 0-0.281v0.014c0-43.838 33.824-85.681 60.54-121.851h64.077c26.716 36.17 60.435 77.977 60.54 121.851-0.012 8.186-0.585 16.226-1.681 24.099l0.105-0.92z" />
<glyph unicode="&#xe943;" horiz-adv-x="660" d="M420.98 15.833c-6.32-45.129-44.667-79.48-91.038-79.48s-84.718 34.352-90.982 78.995l-0.056 0.485c-0.959 6.882-1.506 14.833-1.506 22.913 0 0.094 0 0.188 0 0.281v-0.014c0 43.838 33.824 85.681 60.54 121.851h64.077c26.716-36.17 60.435-77.977 60.54-121.851-0.012-8.186-0.585-16.226-1.681-24.099l0.105 0.92z" />
<glyph unicode="&#xe944;" horiz-adv-x="660" d="M422.485 856.987c0-43.838-33.824-85.681-60.54-121.816h-32.038c26.716 36.17 60.47 77.977 60.54 121.816 0 0.11 0 0.239 0 0.369 0 8.042-0.535 15.96-1.57 23.719l0.099-0.908c-5.744 39.693-35.898 70.959-74.526 78.306l-0.58 0.092c4.8 0.96 10.338 1.532 16.001 1.575h0.036c46.329-0.418 84.517-34.739 90.978-79.334l0.059-0.499c0.981-6.934 1.541-14.943 1.541-23.083 0-0.083 0-0.166 0-0.25v0.013z" />
<glyph unicode="&#xe945;" horiz-adv-x="660" d="M422.485 39.013c0.001-0.184 0.001-0.401 0.001-0.618 0-7.955-0.535-15.785-1.571-23.456l0.099 0.895c-6.506-45.101-44.703-79.43-90.996-79.833h-0.042c-0.018 0-0.040 0-0.061 0-5.635 0-11.148 0.522-16.493 1.521l0.552-0.086c39.194 7.452 69.332 38.714 75.012 77.897l0.060 0.5c0.936 6.851 1.471 14.768 1.471 22.81 0 0.13 0 0.26 0 0.39v-0.020c0 43.838-33.824 85.681-60.54 121.816h32.038c26.646-36.030 60.365-78.047 60.47-121.816z" />
<glyph unicode="&#xe946;" horiz-adv-x="660" d="M535.197 758.281h64.077v-620.598h-64.077z" />
<glyph unicode="&#xe947;" horiz-adv-x="660" d="M567.27 758.281h32.038v-620.598h-32.038z" />
<glyph unicode="&#xe948;" horiz-adv-x="660" d="M658.343 880.167c-6.32 45.129-44.667 79.48-91.038 79.48s-84.718-34.352-90.982-78.995l-0.056-0.485c-0.959-6.882-1.506-14.833-1.506-22.913 0-0.094 0-0.188 0-0.281v0.014c0-43.838 33.824-85.681 60.54-121.851h64.077c26.716 36.17 60.435 77.977 60.54 121.851-0.017 8.19-0.589 16.23-1.681 24.104l0.105-0.924z" />
<glyph unicode="&#xe949;" horiz-adv-x="660" d="M658.343 15.833c-6.32-45.129-44.667-79.48-91.038-79.48s-84.718 34.352-90.982 78.995l-0.056 0.485c-0.959 6.882-1.506 14.833-1.506 22.913 0 0.094 0 0.188 0 0.281v-0.014c0 43.838 33.824 85.681 60.54 121.851h64.077c26.716-36.17 60.435-77.977 60.54-121.851-0.017-8.19-0.589-16.23-1.681-24.104l0.105 0.924z" />
<glyph unicode="&#xe94a;" horiz-adv-x="660" d="M659.814 856.987c0-43.838-33.824-85.681-60.54-121.816h-32.038c26.716 36.17 60.435 77.977 60.54 121.816 0.001 0.162 0.001 0.353 0.001 0.545 0 7.981-0.535 15.837-1.57 23.534l0.099-0.899c-5.739 39.684-35.877 70.946-74.491 78.306l-0.58 0.092c4.789 0.958 10.314 1.529 15.964 1.575h0.038c46.335-0.403 84.532-34.732 90.979-79.334l0.059-0.499c0.981-6.908 1.541-14.886 1.541-22.995 0-0.114 0-0.228 0-0.343v0.018z" />
<glyph unicode="&#xe94b;" horiz-adv-x="660" d="M659.814 39.048c0.001-0.209 0.001-0.456 0.001-0.702 0-7.925-0.535-15.726-1.571-23.367l0.099 0.89c-6.506-45.101-44.703-79.43-90.996-79.833h-0.042c-0.018 0-0.040 0-0.061 0-5.635 0-11.148 0.522-16.493 1.521l0.552-0.086c39.194 7.452 69.332 38.714 75.012 77.897l0.060 0.5c0.937 6.798 1.471 14.654 1.471 22.635 0 0.191 0 0.383-0.001 0.574v-0.030c0 43.838-33.824 85.681-60.54 121.816h32.038c26.681-36.030 60.4-78.047 60.47-121.816z" />
<glyph unicode="&#xe94c;" horiz-adv-x="756" d="M720.462 645.412l-39.386 26.244c-5.777 3.886-12.89 6.203-20.545 6.203-12.093 0-22.836-5.782-29.614-14.732l-0.067-0.093-1.423-1.884c-6.845-9.053-17.594-14.842-29.695-14.842-15.822 0-29.332 9.897-34.677 23.838l-0.086 0.254-12.933 34.531c-5.426 14.205-18.941 24.112-34.77 24.112-13.216 0-24.818-6.905-31.397-17.304l-0.090-0.152-36.707-58.598c-6.669-10.55-18.271-17.454-31.486-17.454-12.108 0-22.862 5.796-29.64 14.765l-0.068 0.094-0.963 1.298c-6.844 9.071-17.603 14.873-29.718 14.873s-22.873-5.802-29.65-14.779l-0.068-0.094-7.785-10.338c-6.845-9.060-17.598-14.855-29.704-14.855-10.254 0-19.538 4.157-26.257 10.879l-10.129 10.129c-6.721 6.733-16.013 10.899-26.277 10.899-8.4 0-16.148-2.79-22.369-7.493l0.093 0.068-25.532-19.128c-6.129-4.64-13.881-7.433-22.286-7.433-13.449 0-25.227 7.151-31.741 17.858l-0.093 0.164-25.699 42.86c-6.607 10.869-18.384 18.018-31.831 18.018-4.968 0-9.708-0.976-14.040-2.746l0.248 0.090-33.819-13.519v-565.052c0-97.504 79.043-176.547 176.547-176.547v0h362.889c97.504 0 176.547 79.043 176.547 176.547v0 517.671c-5.936 0.684-11.293 2.698-15.918 5.736l0.138-0.085z" />
<glyph unicode="&#xe94d;" horiz-adv-x="756" d="M559.569-64h-362.847c-102.689 0.119-185.906 83.321-186.049 185.993v571.386l39.763 15.905c5.151 2.143 11.135 3.388 17.409 3.388 16.877 0 31.65-9.007 39.775-22.475l0.117-0.208 25.699-42.86c4.917-8.084 13.678-13.401 23.681-13.401 6.254 0 12.023 2.078 16.653 5.582l-0.069-0.050 25.532 19.128c7.717 5.827 17.47 9.333 28.042 9.333 12.828 0 24.451-5.162 32.904-13.522l10.125-10.125c4.934-4.99 11.781-8.081 19.349-8.081 0.762 0 1.516 0.031 2.262 0.093l-0.098-0.006c8.267 0.585 15.461 4.73 20.124 10.897l0.050 0.069 7.994 10.297c8.597 11.369 22.096 18.64 37.293 18.64s28.696-7.27 37.209-18.523l0.085-0.117c5.068-7.478 13.525-12.328 23.115-12.328 0.394 0 0.786 0.008 1.175 0.024l-0.056-0.002c9.392 0.346 17.538 5.38 22.2 12.819l0.067 0.114 36.707 58.598c8.377 13.246 22.946 21.914 39.539 21.914 19.881 0 36.856-12.443 43.562-29.966l0.107-0.32 12.933-34.531c4.051-10.571 14.115-17.939 25.9-17.939 9.006 0 17.006 4.303 22.058 10.964l0.050 0.069 1.381 1.884c8.596 11.393 22.109 18.681 37.324 18.681 9.645 0 18.607-2.929 26.044-7.946l-0.166 0.105 39.386-26.244c3.306-2.187 7.257-3.679 11.511-4.174l0.125-0.012 8.371-1.13v-525.917c-0.143-102.759-83.479-186.007-186.258-186.007-0.029 0-0.059 0-0.088 0h0.005zM29.676 680.488v-558.439c0.214-92.171 74.875-166.832 167.026-167.046h362.867c92.171 0.214 166.832 74.875 167.046 167.026v510.199c-4.335 1.318-8.113 3.142-11.535 5.453l0.15-0.096-39.386 26.244c-4.312 2.909-9.624 4.643-15.342 4.643-9.012 0-17.017-4.309-22.069-10.978l-0.050-0.069-1.381-1.884c-8.596-11.394-22.109-18.682-37.325-18.682-19.877 0-36.85 12.438-43.559 29.956l-0.108 0.32-12.933 34.531c-4.038 10.568-14.094 17.938-25.871 17.938-9.838 0-18.474-5.142-23.368-12.885l-0.067-0.114-36.707-58.598c-8.045-12.728-21.802-21.214-37.58-21.846l-0.090-0.003c-0.675-0.035-1.466-0.056-2.261-0.056-15.109 0-28.518 7.278-36.913 18.518l-0.086 0.121c-5.11 7.36-13.519 12.118-23.039 12.118-8.974 0-16.96-4.228-22.076-10.8l-0.047-0.063-7.785-10.338c-8.596-11.386-22.105-18.669-37.316-18.669-12.871 0-24.523 5.215-32.96 13.647v0l-10.087 9.962c-5.019 4.967-11.925 8.036-19.547 8.036-6.244 0-12.006-2.059-16.646-5.535l0.072 0.052-25.532-19.128c-7.694-5.807-17.418-9.301-27.958-9.301-16.905 0-31.711 8.988-39.899 22.447l-0.117 0.206-25.699 42.86c-4.9 8.117-13.673 13.461-23.694 13.461-3.709 0-7.247-0.732-10.477-2.059l0.184 0.067z" />
<glyph unicode="&#xe94e;" horiz-adv-x="756" d="M585.729 501.513h8.371c-38.833 0.52-73.926 16.113-99.78 41.18l0.038-0.036c-17.316 16.617-37.98 29.897-60.862 38.711l-1.252 0.424c-4.398-2.003-9.538-3.171-14.951-3.171-10.802 0-20.517 4.65-27.254 12.056l-0.027 0.030c-3.055 0-6.069 0.502-9.125 0.502-44.421-0.994-84.367-19.361-113.467-48.549l-0.004-0.004c-25.816-25.031-60.909-40.624-99.641-41.143l-0.101-0.001h5.148c-32.916-0.166-59.537-26.876-59.561-59.81v-254.527c0 0 0 0 0 0 0-33.027 26.75-59.806 59.765-59.854h-8.827c39.541-0.503 75.211-16.672 101.168-42.57l-0.003 0.003c28.814-31.29 69.981-50.826 115.71-50.826s86.896 19.535 115.61 50.715l0.1 0.11c25.974 25.915 61.677 42.087 101.158 42.566l0.091 0.001h-12.222c32.916 0.166 59.537 26.876 59.561 59.81v254.568c0 0 0 0 0 0 0 32.974-26.683 59.716-59.635 59.812h-0.009z" />
<glyph unicode="&#xe94f;" horiz-adv-x="756" d="M114.894 635.828l24.276-40.474c6.249-10.282 17.39-17.045 30.11-17.045 7.931 0 15.248 2.629 21.127 7.064l-0.089-0.064 24.109 18.082c5.809 4.429 13.169 7.096 21.152 7.096 9.729 0 18.533-3.961 24.887-10.359l9.545-9.545c6.349-6.36 15.126-10.294 24.822-10.294 11.449 0 21.617 5.486 28.019 13.972l0.064 0.089 7.325 9.794c6.466 8.577 16.635 14.064 28.085 14.064s21.619-5.487 28.021-13.975l0.064-0.089 0.921-1.214c6.476-8.553 16.636-14.021 28.074-14.021 12.492 0 23.46 6.522 29.685 16.347l0.085 0.144 34.698 55.501c6.296 10.048 17.308 16.63 29.857 16.63 15.011 0 27.822-9.418 32.846-22.667l0.080-0.241 12.264-32.647c5.144-13.413 17.916-22.763 32.872-22.763 11.435 0 21.594 5.466 28.006 13.928l0.064 0.088 1.339 1.8c6.475 8.566 16.644 14.044 28.092 14.044 7.25 0 13.987-2.197 19.582-5.962l-0.125 0.080 37.21-24.82c5.434-3.62 12.113-5.776 19.296-5.776 19.38 0 35.093 15.699 35.117 35.073v25.367c0 142.728-179.101 101.709-179.101 179.101v20.174h1.214c32.187 0 58.598 14.608 58.598 46.837v2.26c0 32.363-26.235 58.598-58.598 58.598v0h-400.559c-32.363 0-58.598-26.235-58.598-58.598v0-2.386c0-32.187 26.327-46.837 58.598-46.837h1.214v-20.133c0-77.433-179.101-36.373-179.101-179.101v-31.392l71.699 28.713c3.879 1.607 8.383 2.54 13.106 2.54 12.687 0 23.801-6.736 29.96-16.826l0.087-0.154z" />
<glyph unicode="&#xe950;" horiz-adv-x="756" d="M360.378 837.907c-10.495 0-19.002 8.508-19.002 19.002s8.508 19.002 19.002 19.002v0c34.866 0 55.417 0 75.926 0s41.102 0 76.010 0c10.495 0 19.002-8.508 19.002-19.002s-8.508-19.002-19.002-19.002v0c-34.866 0-55.417 0-75.926 0s-41.102 0-76.010 0z" />
<glyph unicode="&#xe951;" horiz-adv-x="756" d="M284.41 838.116h-38.005c-10.495 0-19.002 8.508-19.002 19.002s8.508 19.002 19.002 19.002h38.005c10.495 0 19.002-8.508 19.002-19.002s-8.508-19.002-19.002-19.002v0z" />
<glyph unicode="&#xe952;" horiz-adv-x="756" d="M485.15 247.951c0-58.598-70.234-131.971-108.197-131.553-34.657 0-108.197 72.871-108.197 131.553s42.149 91.078 108.197 91.078 108.197-32.396 108.197-91.078z" />
<glyph unicode="&#xe953;" horiz-adv-x="756" d="M380.427 328.941c-10.495 0-19.002 8.508-19.002 19.002v0c0.19 68.383 55.622 123.756 124.009 123.851h0.009c10.495 0 19.002-8.508 19.002-19.002s-8.508-19.002-19.002-19.002v0c-47.508-0.048-86.008-38.548-86.055-86.051v-0.004c-0.118-10.39-8.557-18.77-18.958-18.793h-0.002z" />
<glyph unicode="&#xe954;" horiz-adv-x="756" d="M380.385 328.941c-10.495 0-19.002 8.508-19.002 19.002v0c0 0 0 0 0 0 0 47.552-38.513 86.109-86.048 86.181h-0.007c-10.495 0-19.002 8.508-19.002 19.002s8.508 19.002 19.002 19.002v0c68.47-0.095 123.947-55.587 124.018-124.053v-0.007c0-0.037 0-0.081 0-0.126 0-10.48-8.484-18.979-18.959-19.002h-0.002z" />
<glyph unicode="&#xe955;" horiz-adv-x="756" d="M341.375 230.371c-5.253 0.001-10.012 2.11-13.48 5.527l0.002-0.002c-3.553 3.495-5.755 8.355-5.755 13.729 0 10.633 8.62 19.254 19.254 19.254s19.254-8.62 19.254-19.254c0-10.633-8.62-19.254-19.254-19.254-0.008 0-0.015 0-0.023 0h0.001z" />
<glyph unicode="&#xe956;" horiz-adv-x="756" d="M417.385 230.371c-10.289 0.118-18.584 8.486-18.584 18.792 0 10.379 8.414 18.793 18.793 18.793s18.793-8.414 18.793-18.793c0-5.2-2.112-9.906-5.524-13.308v0c-3.509-3.336-8.244-5.411-13.463-5.483h-0.014z" />
<glyph unicode="&#xe957;" horiz-adv-x="756" d="M379.38 173.406c-10.289 0.118-18.584 8.486-18.584 18.792 0 10.379 8.414 18.793 18.793 18.793s18.793-8.414 18.793-18.793c0-5.2-2.112-9.906-5.524-13.308v0c-3.509-3.336-8.244-5.411-13.463-5.483h-0.014z" />
<glyph unicode="&#xe958;" horiz-adv-x="737" d="M682.748 25.893h-682.667v934.107h682.667c29.748 0 53.863-24.115 53.863-53.863v0-826.463c-0.023-29.708-24.111-53.782-53.822-53.782-0.014 0-0.028 0-0.043 0h0.002z" />
<glyph unicode="&#xe959;" horiz-adv-x="737" d="M566.126 946.817h40.438v-930.064h-40.438v930.064z" />
<glyph unicode="&#xe95a;" horiz-adv-x="737" d="M0 663.755h566.126v-323.5h-566.126v323.5z" />
<glyph unicode="&#xe95b;" horiz-adv-x="737" d="M606.563 663.755h121.313v-323.5h-121.313v323.5z" />
<glyph unicode="&#xe95c;" horiz-adv-x="737" d="M179.664-63.96l-53.903 35.949-53.822-35.949v89.69h107.807z" />
<glyph unicode="&#xe95d;" horiz-adv-x="1070" d="M410.012 136.027h-360.129c-16.497 0-29.87 13.373-29.87 29.87v0 240.252c0 16.497 13.373 29.87 29.87 29.87h360.129c16.497 0 29.87-13.373 29.87-29.87v0-239.987c0.001-0.079 0.001-0.172 0.001-0.266 0-16.497-13.373-29.87-29.87-29.87 0 0-0.001 0-0.001 0v0z" />
<glyph unicode="&#xe95e;" horiz-adv-x="1070" d="M409.978 436.019h-179.982v-299.991h179.982c16.497 0 29.87 13.373 29.87 29.87v0 240.252c0 16.497-13.373 29.87-29.87 29.87v0z" />
<glyph unicode="&#xe95f;" horiz-adv-x="1070" d="M430.024 576.008h-400.121c-0.066-0.001-0.143-0.001-0.221-0.001-16.497 0-29.87 13.373-29.87 29.87 0 5.662 1.575 10.955 4.311 15.467l-0.075-0.133 120.109 203.977c5.278 8.917 14.847 14.802 25.791 14.802 0.022 0 0.044 0 0.066 0h159.999c0.019 0 0.041 0 0.063 0 10.944 0 20.513-5.885 25.715-14.664l0.076-0.138 120.010-204.010c2.661-4.379 4.236-9.672 4.236-15.334 0-16.497-13.373-29.87-29.87-29.87-0.078 0-0.155 0-0.232 0.001h0.012z" />
<glyph unicode="&#xe960;" horiz-adv-x="1070" d="M335.868 825.188c-5.278 8.917-14.847 14.802-25.791 14.802-0.034 0-0.068 0-0.101 0h-79.979v-263.982h199.994c0.066-0.001 0.143-0.001 0.221-0.001 16.497 0 29.87 13.373 29.87 29.87 0 5.662-1.575 10.955-4.311 15.467l0.075-0.133z" />
<glyph unicode="&#xe961;" horiz-adv-x="1070" d="M459.994 606.011v-199.994c0-16.497-13.373-29.87-29.87-29.87h-400.254c-16.497 0-29.87 13.373-29.87 29.87v0 199.994z" />
<glyph unicode="&#xe962;" horiz-adv-x="1070" d="M229.997 606.011v-229.997h199.994c16.497 0 29.87 13.373 29.87 29.87v200.127z" />
<glyph unicode="&#xe963;" horiz-adv-x="1070" d="M350.007 799.998h-240.119c-16.497 0-29.87 13.373-29.87 29.87v0 60.138c0.057 38.634 31.36 69.938 69.989 69.995h160.008c38.634-0.057 69.938-31.36 69.995-69.989v-60.011c0-0.040 0-0.086 0-0.133 0-16.497-13.373-29.87-29.87-29.87-0.047 0-0.094 0-0.14 0h0.007z" />
<glyph unicode="&#xe964;" horiz-adv-x="1070" d="M309.981 960h-79.984v-160.002h120.010c16.497 0 29.87 13.373 29.87 29.87v0 60.138c-0.056 38.599-31.304 69.882-69.884 69.995h-0.011z" />
<glyph unicode="&#xe965;" horiz-adv-x="1070" d="M369.986-64h-279.979c-49.687 0.057-89.951 40.32-90.007 90.002v140.127c0 16.497 13.373 29.87 29.87 29.87v0h400.121c16.497 0 29.87-13.373 29.87-29.87v0-139.989c0-0.010 0-0.022 0-0.033 0-49.683-40.21-89.975-89.862-90.107h-0.013z" />
<glyph unicode="&#xe966;" horiz-adv-x="1070" d="M429.991 195.999h-199.994v-259.999h139.989c49.687 0.057 89.951 40.32 90.007 90.002v140.127c0 0 0 0 0 0 0 16.497-13.373 29.87-29.87 29.87-0.047 0-0.093 0-0.14 0h0.007z" />
<glyph unicode="&#xe967;" horiz-adv-x="1070" d="M757.33-64c-1.025-0.014-2.235-0.023-3.447-0.023-72.322 0-137.833 29.164-185.413 76.373l0.017-0.017c-109.157 109.157-99.566 296.308 21.207 417.18 5.414 5.457 12.916 8.835 21.207 8.835s15.794-3.378 21.206-8.833l353.56-353.56c5.457-5.414 8.835-12.916 8.835-21.207s-3.378-15.794-8.833-21.206l-0.002-0.002c-54.305-55.331-128.114-91.355-210.279-96.923l-1-0.054q-8.563-0.564-17.059-0.564z" />
<glyph unicode="&#xe968;" horiz-adv-x="1070" d="M808.971 252.685l-240.418-240.418c47.568-47.192 113.082-76.355 185.408-76.355 1.184 0 2.367 0.008 3.547 0.023l-0.179-0.002c5.642 0 11.35 0 17.059 0.498 83.164 5.622 156.973 41.646 211.229 96.927l0.049 0.050c5.457 5.414 8.835 12.916 8.835 21.207s-3.378 15.794-8.833 21.206l-0.002 0.002z" />
<glyph unicode="&#xe969;" horiz-adv-x="1070" d="M893.698 337.502c97.635-97.635 129.292-224.275 70.709-282.858s-185.223-26.926-282.858 70.709c-97.635 97.635-129.292 224.275-70.709 282.858s185.223 26.926 282.858-70.709z" />
<glyph unicode="&#xe96a;" horiz-adv-x="1070" d="M681.693 125.308c97.608-97.574 224.222-129.236 282.767-70.658s26.916 185.159-70.658 282.767z" />
<glyph unicode="&#xe96b;" horiz-adv-x="1070" d="M915.009 358.723c-45.45 47.153-102.843 82.492-167.317 101.159l-2.675 0.663c-15.164 5.347-32.65 8.436-50.857 8.436-40.126 0-76.747-15.004-104.56-39.708l0.161 0.141c-71.355-71.355-40.324-214.232 70.725-325.248 45.449-47.154 102.842-82.493 167.317-101.159l2.675-0.663c16.411-4.408 35.281-7.014 54.734-7.168l0.093-0.001c1.493-0.058 3.247-0.091 5.008-0.091 37.054 0 70.694 14.618 95.467 38.402l-0.047-0.045c71.355 71.355 40.125 214.232-70.725 325.281zM860.148 201.442h89.775c2.949-7.251 5.925-16.344 8.339-25.662l0.356-1.619c3.293-11.126 5.187-23.908 5.187-37.134 0-12.345-1.651-24.304-4.744-35.669l0.22 0.95zM616.843 288.728c-3.293 11.126-5.188 23.908-5.188 37.133 0 12.345 1.651 24.305 4.745 35.67l-0.22-0.95 99.134-99.134h-89.775c-2.956 7.24-5.943 16.32-8.369 25.626l-0.359 1.622zM918.095 261.447h-100.329v100.329c39.669-27.342 72.987-60.66 99.491-99.045l0.838-1.284zM690.189 407.643c14.385-0.164 28.245-2.091 41.474-5.575l-1.183 0.265c10.937-2.77 20.030-5.747 28.858-9.247l-1.577 0.551v-89.775l-99.101 99.101c9.071 2.972 19.511 4.686 30.35 4.686 0.403 0 0.805-0.002 1.207-0.007l-0.061 0.001zM657.399 201.442h100.362v-100.495c-39.684 27.348-73.013 60.678-99.524 99.078l-0.838 1.284zM845.014 60.557c-10.938 2.77-20.030 5.747-28.858 9.247l1.577-0.551v89.775l99.134-99.134c-10.438-2.886-22.424-4.544-34.797-4.544-13.209 0-25.977 1.89-38.047 5.414l0.958-0.24z" />
<glyph unicode="&#xe96c;" horiz-adv-x="1070" d="M872.627 316.241c16.443-16.419 31.374-34.342 44.572-53.55l0.83-1.278h-100.229l-60.104-60.104v-100.229c-20.471 14.037-38.383 28.978-54.786 45.427l-0.008 0.008-42.415-42.415c45.446-47.125 102.827-82.441 167.284-101.093l2.675-0.663c16.411-4.408 35.28-7.014 54.734-7.168l0.094-0.001c1.493-0.058 3.247-0.091 5.008-0.091 37.054 0 70.694 14.618 95.467 38.402l-0.047-0.045c71.355 71.355 40.324 214.199-70.658 325.248zM845.014 60.689c-10.936 2.769-20.028 5.745-28.856 9.246l1.575-0.551v89.775l99.134-99.134c-10.487-2.913-22.528-4.588-34.961-4.588-13.137 0-25.837 1.869-37.85 5.357l0.957-0.238zM958.619 174.294c3.293-11.126 5.187-23.908 5.187-37.134 0-12.345-1.651-24.304-4.744-35.669l0.22 0.95-99.134 99.134h89.775c2.956-7.293 5.933-16.431 8.343-25.797l0.353-1.617z" />
<glyph unicode="&#xe96d;" horiz-adv-x="731" d="M621.743-64.067h-512l-73.429 621.743h658.324z" />
<glyph unicode="&#xe96e;" horiz-adv-x="731" d="M694.838 557.676h-658.257c-20.277 0-36.714 16.438-36.714 36.714s16.438 36.714 36.714 36.714v0h658.324c20.277 0 36.714-16.438 36.714-36.714s-16.438-36.714-36.714-36.714v0z" />
<glyph unicode="&#xe96f;" horiz-adv-x="731" d="M365.743 960.067c-181.791 0-329.162-147.371-329.162-329.162v0h658.324c0 181.791-147.371 329.162-329.162 329.162v0z" />
<glyph unicode="&#xe970;" horiz-adv-x="731" d="M282.501 740.581h166.35c36.785 0.025 67.331 26.707 73.366 61.772l0.063 0.443 17.823 106.806c-49.45 31.626-109.762 50.41-174.46 50.41s-125.010-18.784-175.778-51.197l1.317 0.786 17.823-106.806c6.098-35.508 36.644-62.19 73.426-62.214h0.003z" />
<glyph unicode="&#xe971;" horiz-adv-x="731" d="M185.575 275.976h-2.47c-8.801 1.253-15.493 8.739-15.493 17.787 0 0.789 0.051 1.567 0.15 2.329l-0.010-0.090c6.288 76.161 67.178 136.267 143.124 141.293l0.463 0.025c9.917 0 17.957-8.039 17.957-17.957s-8.039-17.957-17.957-17.957v0c-91.719 0-107.407-105.804-108.007-110.277-1.255-8.788-8.723-15.471-17.755-15.487h-0.002z" />
<glyph unicode="&#xe972;" horiz-adv-x="731" d="M347.386 401.807c-4.957 0-9.443 2.016-12.682 5.273l-53.938 53.938c-3.254 3.254-5.267 7.75-5.267 12.717 0 9.932 8.052 17.984 17.984 17.984 4.966 0 9.462-2.013 12.717-5.267l53.937-53.937c3.281-3.255 5.312-7.765 5.312-12.75 0-9.917-8.039-17.957-17.957-17.957-0.014 0-0.027 0-0.041 0h0.002z" />
<glyph unicode="&#xe973;" horiz-adv-x="731" d="M293.449 347.87c-9.905 0.016-17.928 8.049-17.928 17.957 0 4.952 2.004 9.435 5.246 12.684v0l53.937 53.937c3.254 3.254 7.75 5.267 12.717 5.267 9.932 0 17.984-8.052 17.984-17.984 0-4.966-2.013-9.462-5.267-12.717l-53.937-53.937c-3.241-3.257-7.726-5.273-12.683-5.274v0z" />
<glyph unicode="&#xe974;" horiz-adv-x="731" d="M508.462 241.264c-2.139-0.971-4.638-1.537-7.269-1.537-9.917 0-17.957 8.039-17.957 17.957 0 2.38 0.463 4.652 1.304 6.731l-0.043-0.12c3.884 11.257 6.126 24.229 6.126 37.725 0 43.346-23.132 81.289-57.725 102.158l-0.535 0.3c-5.141 3.226-8.508 8.863-8.508 15.287 0 9.934 8.053 17.987 17.987 17.987 3.51 0 6.786-1.006 9.554-2.744l-0.075 0.044c45.673-27.002 75.824-75.996 75.824-132.032 0-18.608-3.325-36.44-9.413-52.933l0.342 1.059c-1.775-4.479-5.164-7.998-9.432-9.901l-0.114-0.045z" />
<glyph unicode="&#xe975;" horiz-adv-x="731" d="M561.264 236.591l-65.886-28.838c-2.123-0.954-4.601-1.51-7.209-1.51-9.922 0-17.965 8.043-17.965 17.965 0 7.313 4.37 13.606 10.641 16.409l0.114 0.046 65.886 28.838c2.123 0.954 4.601 1.51 7.209 1.51 9.922 0 17.965-8.043 17.965-17.965 0-7.313-4.37-13.606-10.641-16.409l-0.114-0.046z" />
<glyph unicode="&#xe976;" horiz-adv-x="731" d="M495.178 207.821c-2.113-0.945-4.579-1.495-7.173-1.495-7.319 0-13.615 4.379-16.412 10.66l-0.045 0.114-28.838 65.886c-0.954 2.123-1.51 4.601-1.51 7.209 0 9.922 8.043 17.965 17.965 17.965 7.313 0 13.606-4.37 16.409-10.641l0.046-0.114 28.838-65.886c0.96-2.128 1.52-4.613 1.52-7.229 0-7.328-4.39-13.631-10.684-16.423l-0.115-0.045z" />
<glyph unicode="&#xe977;" horiz-adv-x="731" d="M351.992 105.888c-0.2-0.001-0.437-0.002-0.674-0.002-38.898 0-74.019 16.166-99.013 42.146l-0.042 0.044c-3.254 3.254-5.267 7.75-5.267 12.717 0 9.932 8.052 17.984 17.984 17.984 4.966 0 9.462-2.013 12.717-5.267v0c21.075-19.195 49.22-30.949 80.111-30.949 26.112 0 50.262 8.399 69.896 22.643l-0.345-0.238c2.853 1.993 6.394 3.184 10.213 3.184 9.925 0 17.97-8.046 17.97-17.97 0-6.105-3.045-11.5-7.699-14.747l-0.058-0.039c-26.847-18.121-59.824-29.1-95.337-29.571l-0.12-0.001z" />
<glyph unicode="&#xe978;" horiz-adv-x="731" d="M239.579 96.342c-9.917 0-17.957 8.039-17.957 17.957v0 71.894c0 9.917 8.039 17.957 17.957 17.957s17.957-8.039 17.957-17.957v0-71.894c0-9.917-8.039-17.957-17.957-17.957v0z" />
<glyph unicode="&#xe979;" horiz-adv-x="731" d="M311.472 168.236h-71.894c-9.917 0-17.957 8.039-17.957 17.957s8.039 17.957 17.957 17.957v0h71.894c9.917 0 17.957-8.039 17.957-17.957s-8.039-17.957-17.957-17.957v0z" />
<glyph unicode="&#xe97a;" horiz-adv-x="731" d="M621.743-64.067h-512l-73.429 621.743h658.324z" />
<glyph unicode="&#xe97b;" horiz-adv-x="731" d="M694.838 557.676h-658.257c-20.277 0-36.714 16.438-36.714 36.714s16.438 36.714 36.714 36.714v0h658.324c20.277 0 36.714-16.438 36.714-36.714s-16.438-36.714-36.714-36.714v0z" />
<glyph unicode="&#xe97c;" horiz-adv-x="731" d="M365.743 960.067c-181.791 0-329.162-147.371-329.162-329.162v0h658.324c0 181.791-147.371 329.162-329.162 329.162v0z" />
<glyph unicode="&#xe97d;" horiz-adv-x="731" d="M282.501 740.581h166.35c36.785 0.025 67.331 26.707 73.366 61.772l0.063 0.443 17.823 106.806c-49.45 31.626-109.762 50.41-174.46 50.41s-125.010-18.784-175.778-51.197l1.317 0.786 17.823-106.806c6.098-35.508 36.644-62.19 73.426-62.214h0.003z" />
<glyph unicode="&#xe97e;" horiz-adv-x="731" d="M185.575 275.976h-2.47c-8.801 1.253-15.493 8.739-15.493 17.787 0 0.789 0.051 1.567 0.15 2.329l-0.010-0.090c6.288 76.161 67.178 136.267 143.124 141.293l0.463 0.025c9.917 0 17.957-8.039 17.957-17.957s-8.039-17.957-17.957-17.957v0c-91.719 0-107.407-105.804-108.007-110.277-1.255-8.788-8.723-15.471-17.755-15.487h-0.002z" />
<glyph unicode="&#xe97f;" horiz-adv-x="731" d="M347.386 401.807c-4.957 0-9.443 2.016-12.682 5.273l-53.938 53.938c-3.254 3.254-5.267 7.75-5.267 12.717 0 9.932 8.052 17.984 17.984 17.984 4.966 0 9.462-2.013 12.717-5.267l53.937-53.937c3.281-3.255 5.312-7.765 5.312-12.75 0-9.917-8.039-17.957-17.957-17.957-0.014 0-0.027 0-0.041 0h0.002z" />
<glyph unicode="&#xe980;" horiz-adv-x="731" d="M293.449 347.87c-9.905 0.016-17.928 8.049-17.928 17.957 0 4.952 2.004 9.435 5.246 12.684v0l53.937 53.937c3.254 3.254 7.75 5.267 12.717 5.267 9.932 0 17.984-8.052 17.984-17.984 0-4.966-2.013-9.462-5.267-12.717l-53.937-53.937c-3.241-3.257-7.726-5.273-12.683-5.274v0z" />
<glyph unicode="&#xe981;" horiz-adv-x="731" d="M508.462 241.264c-2.139-0.971-4.638-1.537-7.269-1.537-9.917 0-17.957 8.039-17.957 17.957 0 2.38 0.463 4.652 1.304 6.731l-0.043-0.12c3.884 11.257 6.126 24.229 6.126 37.725 0 43.346-23.132 81.289-57.725 102.158l-0.535 0.3c-5.141 3.226-8.508 8.863-8.508 15.287 0 9.934 8.053 17.987 17.987 17.987 3.51 0 6.786-1.006 9.554-2.744l-0.075 0.044c45.673-27.002 75.824-75.996 75.824-132.032 0-18.608-3.325-36.44-9.413-52.933l0.342 1.059c-1.775-4.479-5.164-7.998-9.432-9.901l-0.114-0.045z" />
<glyph unicode="&#xe982;" horiz-adv-x="731" d="M561.264 236.591l-65.886-28.838c-2.123-0.954-4.601-1.51-7.209-1.51-9.922 0-17.965 8.043-17.965 17.965 0 7.313 4.37 13.606 10.641 16.409l0.114 0.046 65.886 28.838c2.123 0.954 4.601 1.51 7.209 1.51 9.922 0 17.965-8.043 17.965-17.965 0-7.313-4.37-13.606-10.641-16.409l-0.114-0.046z" />
<glyph unicode="&#xe983;" horiz-adv-x="731" d="M495.178 207.821c-2.113-0.945-4.579-1.495-7.173-1.495-7.319 0-13.615 4.379-16.412 10.66l-0.045 0.114-28.838 65.886c-0.954 2.123-1.51 4.601-1.51 7.209 0 9.922 8.043 17.965 17.965 17.965 7.313 0 13.606-4.37 16.409-10.641l0.046-0.114 28.838-65.886c0.96-2.128 1.52-4.613 1.52-7.229 0-7.328-4.39-13.631-10.684-16.423l-0.115-0.045z" />
<glyph unicode="&#xe984;" horiz-adv-x="731" d="M351.992 105.888c-0.2-0.001-0.437-0.002-0.674-0.002-38.898 0-74.019 16.166-99.013 42.146l-0.042 0.044c-3.254 3.254-5.267 7.75-5.267 12.717 0 9.932 8.052 17.984 17.984 17.984 4.966 0 9.462-2.013 12.717-5.267v0c21.075-19.195 49.22-30.949 80.111-30.949 26.112 0 50.262 8.399 69.896 22.643l-0.345-0.238c2.853 1.993 6.394 3.184 10.213 3.184 9.925 0 17.97-8.046 17.97-17.97 0-6.105-3.045-11.5-7.699-14.747l-0.058-0.039c-26.847-18.121-59.824-29.1-95.337-29.571l-0.12-0.001z" />
<glyph unicode="&#xe985;" horiz-adv-x="731" d="M239.579 96.342c-9.917 0-17.957 8.039-17.957 17.957v0 71.894c0 9.917 8.039 17.957 17.957 17.957s17.957-8.039 17.957-17.957v0-71.894c0-9.917-8.039-17.957-17.957-17.957v0z" />
<glyph unicode="&#xe986;" horiz-adv-x="731" d="M311.472 168.236h-71.894c-9.917 0-17.957 8.039-17.957 17.957s8.039 17.957 17.957 17.957v0h71.894c9.917 0 17.957-8.039 17.957-17.957s-8.039-17.957-17.957-17.957v0z" />
<glyph unicode="&#xe987;" horiz-adv-x="731" d="M621.743-64.067h-512l-73.429 621.743h658.324z" />
<glyph unicode="&#xe988;" horiz-adv-x="731" d="M694.838 557.676h-658.257c-20.277 0-36.714 16.438-36.714 36.714s16.438 36.714 36.714 36.714v0h658.324c20.277 0 36.714-16.438 36.714-36.714s-16.438-36.714-36.714-36.714v0z" />
<glyph unicode="&#xe989;" horiz-adv-x="731" d="M365.743 960.067c-181.791 0-329.162-147.371-329.162-329.162v0h658.324c0 181.791-147.371 329.162-329.162 329.162v0z" />
<glyph unicode="&#xe98a;" horiz-adv-x="731" d="M282.501 740.581h166.35c36.785 0.025 67.331 26.707 73.366 61.772l0.063 0.443 17.823 106.806c-49.45 31.626-109.762 50.41-174.46 50.41s-125.010-18.784-175.778-51.197l1.317 0.786 17.823-106.806c6.098-35.508 36.644-62.19 73.426-62.214h0.003z" />
<glyph unicode="&#xe98b;" horiz-adv-x="731" d="M185.575 275.976h-2.47c-8.801 1.253-15.493 8.739-15.493 17.787 0 0.789 0.051 1.567 0.15 2.329l-0.010-0.090c6.288 76.161 67.178 136.267 143.124 141.293l0.463 0.025c9.917 0 17.957-8.039 17.957-17.957s-8.039-17.957-17.957-17.957v0c-91.719 0-107.407-105.804-108.007-110.277-1.255-8.788-8.723-15.471-17.755-15.487h-0.002z" />
<glyph unicode="&#xe98c;" horiz-adv-x="731" d="M347.386 401.807c-4.957 0-9.443 2.016-12.682 5.273l-53.938 53.938c-3.254 3.254-5.267 7.75-5.267 12.717 0 9.932 8.052 17.984 17.984 17.984 4.966 0 9.462-2.013 12.717-5.267l53.937-53.937c3.281-3.255 5.312-7.765 5.312-12.75 0-9.917-8.039-17.957-17.957-17.957-0.014 0-0.027 0-0.041 0h0.002z" />
<glyph unicode="&#xe98d;" horiz-adv-x="731" d="M293.449 347.87c-9.905 0.016-17.928 8.049-17.928 17.957 0 4.952 2.004 9.435 5.246 12.684v0l53.937 53.937c3.254 3.254 7.75 5.267 12.717 5.267 9.932 0 17.984-8.052 17.984-17.984 0-4.966-2.013-9.462-5.267-12.717l-53.937-53.937c-3.241-3.257-7.726-5.273-12.683-5.274v0z" />
<glyph unicode="&#xe98e;" horiz-adv-x="731" d="M508.462 241.264c-2.139-0.971-4.638-1.537-7.269-1.537-9.917 0-17.957 8.039-17.957 17.957 0 2.38 0.463 4.652 1.304 6.731l-0.043-0.12c3.884 11.257 6.126 24.229 6.126 37.725 0 43.346-23.132 81.289-57.725 102.158l-0.535 0.3c-5.141 3.226-8.508 8.863-8.508 15.287 0 9.934 8.053 17.987 17.987 17.987 3.51 0 6.786-1.006 9.554-2.744l-0.075 0.044c45.673-27.002 75.824-75.996 75.824-132.032 0-18.608-3.325-36.44-9.413-52.933l0.342 1.059c-1.775-4.479-5.164-7.998-9.432-9.901l-0.114-0.045z" />
<glyph unicode="&#xe98f;" horiz-adv-x="731" d="M561.264 236.591l-65.886-28.838c-2.123-0.954-4.601-1.51-7.209-1.51-9.922 0-17.965 8.043-17.965 17.965 0 7.313 4.37 13.606 10.641 16.409l0.114 0.046 65.886 28.838c2.123 0.954 4.601 1.51 7.209 1.51 9.922 0 17.965-8.043 17.965-17.965 0-7.313-4.37-13.606-10.641-16.409l-0.114-0.046z" />
<glyph unicode="&#xe990;" horiz-adv-x="731" d="M495.178 207.821c-2.113-0.945-4.579-1.495-7.173-1.495-7.319 0-13.615 4.379-16.412 10.66l-0.045 0.114-28.838 65.886c-0.954 2.123-1.51 4.601-1.51 7.209 0 9.922 8.043 17.965 17.965 17.965 7.313 0 13.606-4.37 16.409-10.641l0.046-0.114 28.838-65.886c0.96-2.128 1.52-4.613 1.52-7.229 0-7.328-4.39-13.631-10.684-16.423l-0.115-0.045z" />
<glyph unicode="&#xe991;" horiz-adv-x="731" d="M351.992 105.888c-0.2-0.001-0.437-0.002-0.674-0.002-38.898 0-74.019 16.166-99.013 42.146l-0.042 0.044c-3.254 3.254-5.267 7.75-5.267 12.717 0 9.932 8.052 17.984 17.984 17.984 4.966 0 9.462-2.013 12.717-5.267v0c21.075-19.195 49.22-30.949 80.111-30.949 26.112 0 50.262 8.399 69.896 22.643l-0.345-0.238c2.853 1.993 6.394 3.184 10.213 3.184 9.925 0 17.97-8.046 17.97-17.97 0-6.105-3.045-11.5-7.699-14.747l-0.058-0.039c-26.847-18.121-59.824-29.1-95.337-29.571l-0.12-0.001z" />
<glyph unicode="&#xe992;" horiz-adv-x="731" d="M239.579 96.342c-9.917 0-17.957 8.039-17.957 17.957v0 71.894c0 9.917 8.039 17.957 17.957 17.957s17.957-8.039 17.957-17.957v0-71.894c0-9.917-8.039-17.957-17.957-17.957v0z" />
<glyph unicode="&#xe993;" horiz-adv-x="731" d="M311.472 168.236h-71.894c-9.917 0-17.957 8.039-17.957 17.957s8.039 17.957 17.957 17.957v0h71.894c9.917 0 17.957-8.039 17.957-17.957s-8.039-17.957-17.957-17.957v0z" />
<glyph unicode="&#xe994;" horiz-adv-x="731" d="M621.743-64.067h-512l-73.429 621.743h658.324z" />
<glyph unicode="&#xe995;" horiz-adv-x="731" d="M694.838 557.676h-658.257c-20.277 0-36.714 16.438-36.714 36.714s16.438 36.714 36.714 36.714v0h658.324c20.277 0 36.714-16.438 36.714-36.714s-16.438-36.714-36.714-36.714v0z" />
<glyph unicode="&#xe996;" horiz-adv-x="731" d="M365.743 960.067c-181.791 0-329.162-147.371-329.162-329.162v0h658.324c0 181.791-147.371 329.162-329.162 329.162v0z" />
<glyph unicode="&#xe997;" horiz-adv-x="731" d="M282.501 740.581h166.35c36.785 0.025 67.331 26.707 73.366 61.772l0.063 0.443 17.823 106.806c-49.45 31.626-109.762 50.41-174.46 50.41s-125.010-18.784-175.778-51.197l1.317 0.786 17.823-106.806c6.098-35.508 36.644-62.19 73.426-62.214h0.003z" />
<glyph unicode="&#xe998;" horiz-adv-x="731" d="M185.575 275.976h-2.47c-8.801 1.253-15.493 8.739-15.493 17.787 0 0.789 0.051 1.567 0.15 2.329l-0.010-0.090c6.288 76.161 67.178 136.267 143.124 141.293l0.463 0.025c9.917 0 17.957-8.039 17.957-17.957s-8.039-17.957-17.957-17.957v0c-91.719 0-107.407-105.804-108.007-110.277-1.255-8.788-8.723-15.471-17.755-15.487h-0.002z" />
<glyph unicode="&#xe999;" horiz-adv-x="731" d="M347.386 401.807c-4.957 0-9.443 2.016-12.682 5.273l-53.938 53.938c-3.254 3.254-5.267 7.75-5.267 12.717 0 9.932 8.052 17.984 17.984 17.984 4.966 0 9.462-2.013 12.717-5.267l53.937-53.937c3.281-3.255 5.312-7.765 5.312-12.75 0-9.917-8.039-17.957-17.957-17.957-0.014 0-0.027 0-0.041 0h0.002z" />
<glyph unicode="&#xe99a;" horiz-adv-x="731" d="M293.449 347.87c-9.905 0.016-17.928 8.049-17.928 17.957 0 4.952 2.004 9.435 5.246 12.684v0l53.937 53.937c3.254 3.254 7.75 5.267 12.717 5.267 9.932 0 17.984-8.052 17.984-17.984 0-4.966-2.013-9.462-5.267-12.717l-53.937-53.937c-3.241-3.257-7.726-5.273-12.683-5.274v0z" />
<glyph unicode="&#xe99b;" horiz-adv-x="731" d="M508.462 241.264c-2.139-0.971-4.638-1.537-7.269-1.537-9.917 0-17.957 8.039-17.957 17.957 0 2.38 0.463 4.652 1.304 6.731l-0.043-0.12c3.884 11.257 6.126 24.229 6.126 37.725 0 43.346-23.132 81.289-57.725 102.158l-0.535 0.3c-5.141 3.226-8.508 8.863-8.508 15.287 0 9.934 8.053 17.987 17.987 17.987 3.51 0 6.786-1.006 9.554-2.744l-0.075 0.044c45.673-27.002 75.824-75.996 75.824-132.032 0-18.608-3.325-36.44-9.413-52.933l0.342 1.059c-1.775-4.479-5.164-7.998-9.432-9.901l-0.114-0.045z" />
<glyph unicode="&#xe99c;" horiz-adv-x="731" d="M561.264 236.591l-65.886-28.838c-2.123-0.954-4.601-1.51-7.209-1.51-9.922 0-17.965 8.043-17.965 17.965 0 7.313 4.37 13.606 10.641 16.409l0.114 0.046 65.886 28.838c2.123 0.954 4.601 1.51 7.209 1.51 9.922 0 17.965-8.043 17.965-17.965 0-7.313-4.37-13.606-10.641-16.409l-0.114-0.046z" />
<glyph unicode="&#xe99d;" horiz-adv-x="731" d="M495.178 207.821c-2.113-0.945-4.579-1.495-7.173-1.495-7.319 0-13.615 4.379-16.412 10.66l-0.045 0.114-28.838 65.886c-0.954 2.123-1.51 4.601-1.51 7.209 0 9.922 8.043 17.965 17.965 17.965 7.313 0 13.606-4.37 16.409-10.641l0.046-0.114 28.838-65.886c0.96-2.128 1.52-4.613 1.52-7.229 0-7.328-4.39-13.631-10.684-16.423l-0.115-0.045z" />
<glyph unicode="&#xe99e;" horiz-adv-x="731" d="M351.992 105.888c-0.2-0.001-0.437-0.002-0.674-0.002-38.898 0-74.019 16.166-99.013 42.146l-0.042 0.044c-3.254 3.254-5.267 7.75-5.267 12.717 0 9.932 8.052 17.984 17.984 17.984 4.966 0 9.462-2.013 12.717-5.267v0c21.075-19.195 49.22-30.949 80.111-30.949 26.112 0 50.262 8.399 69.896 22.643l-0.345-0.238c2.853 1.993 6.394 3.184 10.213 3.184 9.925 0 17.97-8.046 17.97-17.97 0-6.105-3.045-11.5-7.699-14.747l-0.058-0.039c-26.847-18.121-59.824-29.1-95.337-29.571l-0.12-0.001z" />
<glyph unicode="&#xe99f;" horiz-adv-x="731" d="M239.579 96.342c-9.917 0-17.957 8.039-17.957 17.957v0 71.894c0 9.917 8.039 17.957 17.957 17.957s17.957-8.039 17.957-17.957v0-71.894c0-9.917-8.039-17.957-17.957-17.957v0z" />
<glyph unicode="&#xe9a0;" horiz-adv-x="731" d="M311.472 168.236h-71.894c-9.917 0-17.957 8.039-17.957 17.957s8.039 17.957 17.957 17.957v0h71.894c9.917 0 17.957-8.039 17.957-17.957s-8.039-17.957-17.957-17.957v0z" />
<glyph unicode="&#xe9a1;" horiz-adv-x="731" d="M621.743-64.067h-512l-73.429 621.743h658.324z" />
<glyph unicode="&#xe9a2;" horiz-adv-x="731" d="M694.838 557.676h-658.257c-20.277 0-36.714 16.438-36.714 36.714s16.438 36.714 36.714 36.714v0h658.324c20.277 0 36.714-16.438 36.714-36.714s-16.438-36.714-36.714-36.714v0z" />
<glyph unicode="&#xe9a3;" horiz-adv-x="731" d="M365.743 960.067c-181.791 0-329.162-147.371-329.162-329.162v0h658.324c0 181.791-147.371 329.162-329.162 329.162v0z" />
<glyph unicode="&#xe9a4;" horiz-adv-x="731" d="M282.501 740.581h166.35c36.785 0.025 67.331 26.707 73.366 61.772l0.063 0.443 17.823 106.806c-49.45 31.626-109.762 50.41-174.46 50.41s-125.010-18.784-175.778-51.197l1.317 0.786 17.823-106.806c6.098-35.508 36.644-62.19 73.426-62.214h0.003z" />
<glyph unicode="&#xe9a5;" horiz-adv-x="731" d="M185.575 275.976h-2.47c-8.801 1.253-15.493 8.739-15.493 17.787 0 0.789 0.051 1.567 0.15 2.329l-0.010-0.090c6.288 76.161 67.178 136.267 143.124 141.293l0.463 0.025c9.917 0 17.957-8.039 17.957-17.957s-8.039-17.957-17.957-17.957v0c-91.719 0-107.407-105.804-108.007-110.277-1.255-8.788-8.723-15.471-17.755-15.487h-0.002z" />
<glyph unicode="&#xe9a6;" horiz-adv-x="731" d="M347.386 401.807c-4.957 0-9.443 2.016-12.682 5.273l-53.938 53.938c-3.254 3.254-5.267 7.75-5.267 12.717 0 9.932 8.052 17.984 17.984 17.984 4.966 0 9.462-2.013 12.717-5.267l53.937-53.937c3.281-3.255 5.312-7.765 5.312-12.75 0-9.917-8.039-17.957-17.957-17.957-0.014 0-0.027 0-0.041 0h0.002z" />
<glyph unicode="&#xe9a7;" horiz-adv-x="731" d="M293.449 347.87c-9.905 0.016-17.928 8.049-17.928 17.957 0 4.952 2.004 9.435 5.246 12.684v0l53.937 53.937c3.254 3.254 7.75 5.267 12.717 5.267 9.932 0 17.984-8.052 17.984-17.984 0-4.966-2.013-9.462-5.267-12.717l-53.937-53.937c-3.241-3.257-7.726-5.273-12.683-5.274v0z" />
<glyph unicode="&#xe9a8;" horiz-adv-x="731" d="M508.462 241.264c-2.139-0.971-4.638-1.537-7.269-1.537-9.917 0-17.957 8.039-17.957 17.957 0 2.38 0.463 4.652 1.304 6.731l-0.043-0.12c3.884 11.257 6.126 24.229 6.126 37.725 0 43.346-23.132 81.289-57.725 102.158l-0.535 0.3c-5.141 3.226-8.508 8.863-8.508 15.287 0 9.934 8.053 17.987 17.987 17.987 3.51 0 6.786-1.006 9.554-2.744l-0.075 0.044c45.673-27.002 75.824-75.996 75.824-132.032 0-18.608-3.325-36.44-9.413-52.933l0.342 1.059c-1.775-4.479-5.164-7.998-9.432-9.901l-0.114-0.045z" />
<glyph unicode="&#xe9a9;" horiz-adv-x="731" d="M561.264 236.591l-65.886-28.838c-2.123-0.954-4.601-1.51-7.209-1.51-9.922 0-17.965 8.043-17.965 17.965 0 7.313 4.37 13.606 10.641 16.409l0.114 0.046 65.886 28.838c2.123 0.954 4.601 1.51 7.209 1.51 9.922 0 17.965-8.043 17.965-17.965 0-7.313-4.37-13.606-10.641-16.409l-0.114-0.046z" />
<glyph unicode="&#xe9aa;" horiz-adv-x="731" d="M495.178 207.821c-2.113-0.945-4.579-1.495-7.173-1.495-7.319 0-13.615 4.379-16.412 10.66l-0.045 0.114-28.838 65.886c-0.954 2.123-1.51 4.601-1.51 7.209 0 9.922 8.043 17.965 17.965 17.965 7.313 0 13.606-4.37 16.409-10.641l0.046-0.114 28.838-65.886c0.96-2.128 1.52-4.613 1.52-7.229 0-7.328-4.39-13.631-10.684-16.423l-0.115-0.045z" />
<glyph unicode="&#xe9ab;" horiz-adv-x="731" d="M351.992 105.888c-0.2-0.001-0.437-0.002-0.674-0.002-38.898 0-74.019 16.166-99.013 42.146l-0.042 0.044c-3.254 3.254-5.267 7.75-5.267 12.717 0 9.932 8.052 17.984 17.984 17.984 4.966 0 9.462-2.013 12.717-5.267v0c21.075-19.195 49.22-30.949 80.111-30.949 26.112 0 50.262 8.399 69.896 22.643l-0.345-0.238c2.853 1.993 6.394 3.184 10.213 3.184 9.925 0 17.97-8.046 17.97-17.97 0-6.105-3.045-11.5-7.699-14.747l-0.058-0.039c-26.847-18.121-59.824-29.1-95.337-29.571l-0.12-0.001z" />
<glyph unicode="&#xe9ac;" horiz-adv-x="731" d="M239.579 96.342c-9.917 0-17.957 8.039-17.957 17.957v0 71.894c0 9.917 8.039 17.957 17.957 17.957s17.957-8.039 17.957-17.957v0-71.894c0-9.917-8.039-17.957-17.957-17.957v0z" />
<glyph unicode="&#xe9ad;" horiz-adv-x="731" d="M311.472 168.236h-71.894c-9.917 0-17.957 8.039-17.957 17.957s8.039 17.957 17.957 17.957v0h71.894c9.917 0 17.957-8.039 17.957-17.957s-8.039-17.957-17.957-17.957v0z" />
<glyph unicode="&#xe9ae;" d="M864.211-64h-704.502c-88.186 0.024-159.666 71.519-159.666 159.709 0 26.016 6.22 50.579 17.255 72.283l-0.419-0.908 352.211 704.502c26.797 52.787 80.683 88.329 142.87 88.329s116.072-35.542 142.451-87.421l0.419-0.908 352.211-704.502c10.616-20.796 16.836-45.359 16.836-71.375 0-88.19-71.48-159.684-159.663-159.709h-0.002z" />
<glyph unicode="&#xe9af;" d="M512.322 704.322c17.756 0 32.151-14.394 32.151-32.151v-383.317c0.128-1.077 0.201-2.324 0.201-3.589 0-17.756-14.394-32.151-32.151-32.151s-32.151 14.394-32.151 32.151c0 1.264 0.073 2.512 0.215 3.738l-0.014-0.149v383.317c0 0.001 0 0.002 0 0.003 0 17.615 14.166 31.921 31.727 32.148h0.021z" />
<glyph unicode="&#xe9b0;" d="M480.171 193.286h63.9v-64.301h-63.9z" />
</font>
</defs>
</svg>
