<?xml version="1.0" encoding="utf-8"?>
<!-- Generator: Adobe Illustrator 23.0.6, SVG Export Plug-In . SVG Version: 6.00 Build 0)  -->
<svg version="1.1" id="Layer_1" xmlns="http://www.w3.org/2000/svg" xmlns:xlink="http://www.w3.org/1999/xlink" x="0px" y="0px"
	 viewBox="0 0 16 16" style="enable-background:new 0 0 16 16;" xml:space="preserve">
<g>
	<path d="M8,13.3C8.1,13.4,8.1,13.4,8,13.3c0.5,0.1,0.9-0.1,1.2-0.6c0.4-0.6,0.8-1.2,1.1-1.8c1.4-2.5,2.4-5.2,3-8c0-0.1,0-0.1,0-0.2
		c-0.1-0.1-0.2-0.2-0.4-0.2c-0.3,0-0.6,0.2-0.8,0.4C10.6,4.7,9.4,6.8,8.5,9C8.5,9.1,8.4,9.3,8.3,9.5c-0.2,0.4-0.4,0.9-0.5,1.3
		C7.5,9.5,7,8.3,6.4,7.3C5.3,5.6,3.6,4.3,2.2,3.2C2.1,3.2,2,3.2,1.9,3.2c-0.1,0-0.1,0.1-0.2,0.2C0.8,7,2.8,11.2,6.2,12.7
		C6.6,12.9,7,13,7.5,12.9c0,0.1,0,0.2,0,0.3C7.7,13.2,7.9,13.3,8,13.3C8,13.4,8,13.3,8,13.3z M5.9,7.6C6.6,8.5,7,9.7,7.3,11
		C6.2,9.2,5.2,7.3,4.1,5.5C4.8,6.1,5.4,6.8,5.9,7.6z M2.2,3.9c0.6,0.4,1.1,0.9,1.7,1.4c1.1,2,2.3,4.1,3.5,6.1c0,0.2,0.1,0.4,0.1,0.6
		c-0.4-0.8-1-1.6-1.5-2.3C5.7,9.4,5.5,9.2,5.4,8.9C5,8.4,4.7,7.8,4.4,7.3C4.1,6.9,3.9,6.5,3.7,6.1C3.2,5.4,2.7,4.7,2.2,4
		C2.2,4,2.2,3.9,2.2,3.9z M6.4,12.2C4,11.1,2.4,8.6,2.1,6c0.3,0.9,0.6,1.7,1.1,2.5C3.6,9.2,4.3,10,5,10.8c0.6,0.6,1.2,1.1,1.9,1.6
		C6.8,12.4,6.6,12.3,6.4,12.2z M7.4,12.4c-0.1,0-0.2,0-0.3,0c-0.7-0.5-1.4-1.1-2.1-1.7C4.3,9.9,3.7,9.2,3.3,8.4
		c-0.5-0.9-0.9-1.9-1.3-3c0-0.4,0-0.9,0.1-1.3c0.5,0.6,1,1.3,1.4,2C3.8,6.6,4,7,4.2,7.3c0.3,0.6,0.6,1.1,1,1.7
		c0.2,0.2,0.4,0.5,0.5,0.8C6.4,10.6,7.1,11.5,7.4,12.4C7.5,12.4,7.4,12.4,7.4,12.4z M12.8,3c-0.7,3.4-2.1,6.5-3.9,9.4
		c-0.2,0.3-0.5,0.5-0.6,0.4c0,0,0,0-0.1,0c1-2.5,2.1-5,3.5-7.4l0.1-0.1C12.1,4.6,12.5,3.9,12.8,3C12.7,3,12.7,3,12.8,3z M8.8,9.8
		C8.9,9.5,8.9,9.3,9,9.2c0.4-0.9,0.8-1.8,1.2-2.7c0.6-1.2,1.4-2.3,2.2-3.3c0,0,0-0.1,0.1-0.1c-0.2,0.8-0.6,1.4-1,2.1l-0.1,0.1
		c-1.3,2.3-2.5,4.8-3.4,7.3c0-0.1-0.1-0.2-0.1-0.3C8,11.6,8.4,10.6,8.8,9.8z"/>
</g>
</svg>
